<svg width="1363" height="167" viewBox="0 0 1363 167" fill="none" xmlns="http://www.w3.org/2000/svg">
<rect width="1363" height="167" rx="15" fill="#F0F0F0"/>
<path d="M0 15C0 6.71573 6.71573 0 15 0H37V167H15C6.71573 167 0 160.284 0 152V15Z" fill="#424241"/>
<path d="M100.906 54.9219L93.3945 52.2383V49.0859L103.602 53.375V55.6367L100.906 54.9219ZM93.3945 57.1719L100.918 54.4297L103.602 53.7852V56.0352L93.3945 60.3242V57.1719ZM116.012 59.293L119.41 44.9375H121.309L121.742 47.3281L118.121 62H116.082L116.012 59.293ZM114.266 44.9375L117.078 59.293L116.844 62H114.57L110.785 44.9375H114.266ZM124.73 59.2344L127.508 44.9375H130.988L127.215 62H124.941L124.73 59.2344ZM122.375 44.9375L125.797 59.3516L125.703 62H123.664L120.02 47.3164L120.488 44.9375H122.375ZM135.98 44V62H132.605V44H135.98ZM135.5 55.2148H134.574C134.582 54.332 134.699 53.5195 134.926 52.7773C135.152 52.0273 135.477 51.3789 135.898 50.832C136.32 50.2773 136.824 49.8477 137.41 49.543C138.004 49.2383 138.66 49.0859 139.379 49.0859C140.004 49.0859 140.57 49.1758 141.078 49.3555C141.594 49.5273 142.035 49.8086 142.402 50.1992C142.777 50.582 143.066 51.0859 143.27 51.7109C143.473 52.3359 143.574 53.0938 143.574 53.9844V62H140.176V53.9609C140.176 53.3984 140.094 52.957 139.93 52.6367C139.773 52.3086 139.543 52.0781 139.238 51.9453C138.941 51.8047 138.574 51.7344 138.137 51.7344C137.652 51.7344 137.238 51.8242 136.895 52.0039C136.559 52.1836 136.289 52.4336 136.086 52.7539C135.883 53.0664 135.734 53.4336 135.641 53.8555C135.547 54.2773 135.5 54.7305 135.5 55.2148ZM151.977 62.2344C150.992 62.2344 150.109 62.0781 149.328 61.7656C148.547 61.4453 147.883 61.0039 147.336 60.4414C146.797 59.8789 146.383 59.2266 146.094 58.4844C145.805 57.7344 145.66 56.9375 145.66 56.0938V55.625C145.66 54.6641 145.797 53.7852 146.07 52.9883C146.344 52.1914 146.734 51.5 147.242 50.9141C147.758 50.3281 148.383 49.8789 149.117 49.5664C149.852 49.2461 150.68 49.0859 151.602 49.0859C152.5 49.0859 153.297 49.2344 153.992 49.5312C154.688 49.8281 155.27 50.25 155.738 50.7969C156.215 51.3438 156.574 52 156.816 52.7656C157.059 53.5234 157.18 54.3672 157.18 55.2969V56.7031H147.102V54.4531H153.863V54.1953C153.863 53.7266 153.777 53.3086 153.605 52.9414C153.441 52.5664 153.191 52.2695 152.855 52.0508C152.52 51.832 152.09 51.7227 151.566 51.7227C151.121 51.7227 150.738 51.8203 150.418 52.0156C150.098 52.2109 149.836 52.4844 149.633 52.8359C149.438 53.1875 149.289 53.6016 149.188 54.0781C149.094 54.5469 149.047 55.0625 149.047 55.625V56.0938C149.047 56.6016 149.117 57.0703 149.258 57.5C149.406 57.9297 149.613 58.3008 149.879 58.6133C150.152 58.9258 150.48 59.168 150.863 59.3398C151.254 59.5117 151.695 59.5977 152.188 59.5977C152.797 59.5977 153.363 59.4805 153.887 59.2461C154.418 59.0039 154.875 58.6406 155.258 58.1562L156.898 59.9375C156.633 60.3203 156.27 60.6875 155.809 61.0391C155.355 61.3906 154.809 61.6797 154.168 61.9062C153.527 62.125 152.797 62.2344 151.977 62.2344ZM164.938 62.2344C163.953 62.2344 163.07 62.0781 162.289 61.7656C161.508 61.4453 160.844 61.0039 160.297 60.4414C159.758 59.8789 159.344 59.2266 159.055 58.4844C158.766 57.7344 158.621 56.9375 158.621 56.0938V55.625C158.621 54.6641 158.758 53.7852 159.031 52.9883C159.305 52.1914 159.695 51.5 160.203 50.9141C160.719 50.3281 161.344 49.8789 162.078 49.5664C162.812 49.2461 163.641 49.0859 164.562 49.0859C165.461 49.0859 166.258 49.2344 166.953 49.5312C167.648 49.8281 168.23 50.25 168.699 50.7969C169.176 51.3438 169.535 52 169.777 52.7656C170.02 53.5234 170.141 54.3672 170.141 55.2969V56.7031H160.062V54.4531H166.824V54.1953C166.824 53.7266 166.738 53.3086 166.566 52.9414C166.402 52.5664 166.152 52.2695 165.816 52.0508C165.48 51.832 165.051 51.7227 164.527 51.7227C164.082 51.7227 163.699 51.8203 163.379 52.0156C163.059 52.2109 162.797 52.4844 162.594 52.8359C162.398 53.1875 162.25 53.6016 162.148 54.0781C162.055 54.5469 162.008 55.0625 162.008 55.625V56.0938C162.008 56.6016 162.078 57.0703 162.219 57.5C162.367 57.9297 162.574 58.3008 162.84 58.6133C163.113 58.9258 163.441 59.168 163.824 59.3398C164.215 59.5117 164.656 59.5977 165.148 59.5977C165.758 59.5977 166.324 59.4805 166.848 59.2461C167.379 59.0039 167.836 58.6406 168.219 58.1562L169.859 59.9375C169.594 60.3203 169.23 60.6875 168.77 61.0391C168.316 61.3906 167.77 61.6797 167.129 61.9062C166.488 62.125 165.758 62.2344 164.938 62.2344ZM175.625 44V62H172.238V44H175.625ZM183.852 55.7891V55.543C183.852 54.6133 183.984 53.7578 184.25 52.9766C184.516 52.1875 184.902 51.5039 185.41 50.9258C185.918 50.3477 186.543 49.8984 187.285 49.5781C188.027 49.25 188.879 49.0859 189.84 49.0859C190.801 49.0859 191.656 49.25 192.406 49.5781C193.156 49.8984 193.785 50.3477 194.293 50.9258C194.809 51.5039 195.199 52.1875 195.465 52.9766C195.73 53.7578 195.863 54.6133 195.863 55.543V55.7891C195.863 56.7109 195.73 57.5664 195.465 58.3555C195.199 59.1367 194.809 59.8203 194.293 60.4062C193.785 60.9844 193.16 61.4336 192.418 61.7539C191.676 62.0742 190.824 62.2344 189.863 62.2344C188.902 62.2344 188.047 62.0742 187.297 61.7539C186.555 61.4336 185.926 60.9844 185.41 60.4062C184.902 59.8203 184.516 59.1367 184.25 58.3555C183.984 57.5664 183.852 56.7109 183.852 55.7891ZM187.227 55.543V55.7891C187.227 56.3203 187.273 56.8164 187.367 57.2773C187.461 57.7383 187.609 58.1445 187.812 58.4961C188.023 58.8398 188.297 59.1094 188.633 59.3047C188.969 59.5 189.379 59.5977 189.863 59.5977C190.332 59.5977 190.734 59.5 191.07 59.3047C191.406 59.1094 191.676 58.8398 191.879 58.4961C192.082 58.1445 192.23 57.7383 192.324 57.2773C192.426 56.8164 192.477 56.3203 192.477 55.7891V55.543C192.477 55.0273 192.426 54.543 192.324 54.0898C192.23 53.6289 192.078 53.2227 191.867 52.8711C191.664 52.5117 191.395 52.2305 191.059 52.0273C190.723 51.8242 190.316 51.7227 189.84 51.7227C189.363 51.7227 188.957 51.8242 188.621 52.0273C188.293 52.2305 188.023 52.5117 187.812 52.8711C187.609 53.2227 187.461 53.6289 187.367 54.0898C187.273 54.543 187.227 55.0273 187.227 55.543ZM202.238 62H198.84V48.1953C198.84 47.2344 199.027 46.4258 199.402 45.7695C199.785 45.1055 200.32 44.6055 201.008 44.2695C201.703 43.9258 202.527 43.7539 203.48 43.7539C203.793 43.7539 204.094 43.7773 204.383 43.8242C204.672 43.8633 204.953 43.9141 205.227 43.9766L205.191 46.5195C205.043 46.4805 204.887 46.4531 204.723 46.4375C204.559 46.4219 204.367 46.4141 204.148 46.4141C203.742 46.4141 203.395 46.4844 203.105 46.625C202.824 46.7578 202.609 46.957 202.461 47.2227C202.312 47.4883 202.238 47.8125 202.238 48.1953V62ZM204.77 49.3203V51.7109H196.953V49.3203H204.77ZM223.695 59.2578V62H215.105V59.2578H223.695ZM216.242 44.9375V62H212.727V44.9375H216.242ZM229.062 49.3203V62H225.676V49.3203H229.062ZM225.465 46.0156C225.465 45.5234 225.637 45.1172 225.98 44.7969C226.324 44.4766 226.785 44.3164 227.363 44.3164C227.934 44.3164 228.391 44.4766 228.734 44.7969C229.086 45.1172 229.262 45.5234 229.262 46.0156C229.262 46.5078 229.086 46.9141 228.734 47.2344C228.391 47.5547 227.934 47.7148 227.363 47.7148C226.785 47.7148 226.324 47.5547 225.98 47.2344C225.637 46.9141 225.465 46.5078 225.465 46.0156ZM236.152 62H232.754V48.1953C232.754 47.2344 232.941 46.4258 233.316 45.7695C233.699 45.1055 234.234 44.6055 234.922 44.2695C235.617 43.9258 236.441 43.7539 237.395 43.7539C237.707 43.7539 238.008 43.7773 238.297 43.8242C238.586 43.8633 238.867 43.9141 239.141 43.9766L239.105 46.5195C238.957 46.4805 238.801 46.4531 238.637 46.4375C238.473 46.4219 238.281 46.4141 238.062 46.4141C237.656 46.4141 237.309 46.4844 237.02 46.625C236.738 46.7578 236.523 46.957 236.375 47.2227C236.227 47.4883 236.152 47.8125 236.152 48.1953V62ZM238.684 49.3203V51.7109H230.867V49.3203H238.684ZM246.008 62.2344C245.023 62.2344 244.141 62.0781 243.359 61.7656C242.578 61.4453 241.914 61.0039 241.367 60.4414C240.828 59.8789 240.414 59.2266 240.125 58.4844C239.836 57.7344 239.691 56.9375 239.691 56.0938V55.625C239.691 54.6641 239.828 53.7852 240.102 52.9883C240.375 52.1914 240.766 51.5 241.273 50.9141C241.789 50.3281 242.414 49.8789 243.148 49.5664C243.883 49.2461 244.711 49.0859 245.633 49.0859C246.531 49.0859 247.328 49.2344 248.023 49.5312C248.719 49.8281 249.301 50.25 249.77 50.7969C250.246 51.3438 250.605 52 250.848 52.7656C251.09 53.5234 251.211 54.3672 251.211 55.2969V56.7031H241.133V54.4531H247.895V54.1953C247.895 53.7266 247.809 53.3086 247.637 52.9414C247.473 52.5664 247.223 52.2695 246.887 52.0508C246.551 51.832 246.121 51.7227 245.598 51.7227C245.152 51.7227 244.77 51.8203 244.449 52.0156C244.129 52.2109 243.867 52.4844 243.664 52.8359C243.469 53.1875 243.32 53.6016 243.219 54.0781C243.125 54.5469 243.078 55.0625 243.078 55.625V56.0938C243.078 56.6016 243.148 57.0703 243.289 57.5C243.438 57.9297 243.645 58.3008 243.91 58.6133C244.184 58.9258 244.512 59.168 244.895 59.3398C245.285 59.5117 245.727 59.5977 246.219 59.5977C246.828 59.5977 247.395 59.4805 247.918 59.2461C248.449 59.0039 248.906 58.6406 249.289 58.1562L250.93 59.9375C250.664 60.3203 250.301 60.6875 249.84 61.0391C249.387 61.3906 248.84 61.6797 248.199 61.9062C247.559 62.125 246.828 62.2344 246.008 62.2344Z" fill="#888888"/>
<path d="M107.205 107.146H99.251V101.191H107.205C108.289 101.191 109.168 101.008 109.842 100.642C110.516 100.275 111.006 99.77 111.314 99.1255C111.636 98.4663 111.797 97.7266 111.797 96.9062C111.797 96.0273 111.636 95.2144 111.314 94.4673C111.006 93.7202 110.516 93.1196 109.842 92.6655C109.168 92.1968 108.289 91.9624 107.205 91.9624H102.151V118H94.439V86.0078H107.205C109.769 86.0078 111.973 86.4766 113.819 87.4141C115.679 88.3516 117.107 89.6406 118.104 91.2812C119.1 92.9072 119.598 94.7676 119.598 96.8623C119.598 98.9277 119.1 100.729 118.104 102.268C117.107 103.806 115.679 105.007 113.819 105.871C111.973 106.721 109.769 107.146 107.205 107.146ZM130.87 100.114V118H123.465V94.2256H130.386L130.87 100.114ZM137.901 94.0498L137.769 100.927C137.476 100.898 137.081 100.861 136.583 100.817C136.084 100.773 135.667 100.751 135.33 100.751C134.466 100.751 133.719 100.854 133.089 101.059C132.474 101.25 131.961 101.542 131.551 101.938C131.155 102.319 130.862 102.802 130.672 103.388C130.496 103.974 130.416 104.655 130.43 105.432L129.09 104.553C129.09 102.956 129.244 101.506 129.551 100.202C129.874 98.8838 130.328 97.7485 130.914 96.7964C131.5 95.8296 132.21 95.0898 133.045 94.5771C133.88 94.0498 134.817 93.7861 135.857 93.7861C136.224 93.7861 136.583 93.8081 136.934 93.8521C137.3 93.896 137.623 93.9619 137.901 94.0498ZM138.736 106.354V105.893C138.736 104.15 138.985 102.546 139.483 101.081C139.981 99.6016 140.713 98.3198 141.68 97.2358C142.647 96.1519 143.841 95.3096 145.262 94.709C146.683 94.0938 148.323 93.7861 150.184 93.7861C152.059 93.7861 153.707 94.0938 155.127 94.709C156.563 95.3096 157.764 96.1519 158.731 97.2358C159.698 98.3198 160.43 99.6016 160.928 101.081C161.426 102.546 161.675 104.15 161.675 105.893V106.354C161.675 108.083 161.426 109.687 160.928 111.167C160.43 112.631 159.698 113.913 158.731 115.012C157.764 116.096 156.57 116.938 155.149 117.539C153.729 118.139 152.088 118.439 150.228 118.439C148.367 118.439 146.719 118.139 145.284 117.539C143.848 116.938 142.647 116.096 141.68 115.012C140.713 113.913 139.981 112.631 139.483 111.167C138.985 109.687 138.736 108.083 138.736 106.354ZM146.141 105.893V106.354C146.141 107.248 146.207 108.083 146.338 108.859C146.47 109.636 146.69 110.317 146.998 110.903C147.305 111.474 147.723 111.921 148.25 112.243C148.777 112.565 149.437 112.727 150.228 112.727C151.004 112.727 151.648 112.565 152.161 112.243C152.688 111.921 153.106 111.474 153.414 110.903C153.721 110.317 153.941 109.636 154.073 108.859C154.205 108.083 154.271 107.248 154.271 106.354V105.893C154.271 105.029 154.205 104.216 154.073 103.454C153.941 102.678 153.721 101.997 153.414 101.411C153.106 100.81 152.688 100.341 152.161 100.004C151.634 99.6675 150.975 99.499 150.184 99.499C149.407 99.499 148.755 99.6675 148.228 100.004C147.715 100.341 147.305 100.81 146.998 101.411C146.69 101.997 146.47 102.678 146.338 103.454C146.207 104.216 146.141 105.029 146.141 105.893ZM177.496 94.2256V99.3672H163.169V94.2256H177.496ZM166.18 88.3149H173.584V110.244C173.584 110.874 173.658 111.364 173.804 111.716C173.951 112.053 174.2 112.294 174.551 112.441C174.917 112.573 175.401 112.639 176.001 112.639C176.426 112.639 176.778 112.631 177.056 112.617C177.334 112.587 177.598 112.551 177.847 112.507V117.802C177.217 118.007 176.558 118.161 175.87 118.264C175.181 118.381 174.449 118.439 173.672 118.439C172.09 118.439 170.735 118.19 169.607 117.692C168.494 117.194 167.645 116.411 167.059 115.341C166.473 114.272 166.18 112.88 166.18 111.167V88.3149ZM178.858 106.354V105.893C178.858 104.15 179.107 102.546 179.605 101.081C180.103 99.6016 180.835 98.3198 181.802 97.2358C182.769 96.1519 183.963 95.3096 185.384 94.709C186.805 94.0938 188.445 93.7861 190.306 93.7861C192.181 93.7861 193.829 94.0938 195.25 94.709C196.685 95.3096 197.886 96.1519 198.853 97.2358C199.82 98.3198 200.552 99.6016 201.05 101.081C201.548 102.546 201.797 104.15 201.797 105.893V106.354C201.797 108.083 201.548 109.687 201.05 111.167C200.552 112.631 199.82 113.913 198.853 115.012C197.886 116.096 196.692 116.938 195.271 117.539C193.851 118.139 192.21 118.439 190.35 118.439C188.489 118.439 186.841 118.139 185.406 117.539C183.97 116.938 182.769 116.096 181.802 115.012C180.835 113.913 180.103 112.631 179.605 111.167C179.107 109.687 178.858 108.083 178.858 106.354ZM186.263 105.893V106.354C186.263 107.248 186.329 108.083 186.46 108.859C186.592 109.636 186.812 110.317 187.12 110.903C187.427 111.474 187.845 111.921 188.372 112.243C188.899 112.565 189.559 112.727 190.35 112.727C191.126 112.727 191.771 112.565 192.283 112.243C192.811 111.921 193.228 111.474 193.536 110.903C193.843 110.317 194.063 109.636 194.195 108.859C194.327 108.083 194.393 107.248 194.393 106.354V105.893C194.393 105.029 194.327 104.216 194.195 103.454C194.063 102.678 193.843 101.997 193.536 101.411C193.228 100.81 192.811 100.341 192.283 100.004C191.756 99.6675 191.097 99.499 190.306 99.499C189.529 99.499 188.877 99.6675 188.35 100.004C187.837 100.341 187.427 100.81 187.12 101.411C186.812 101.997 186.592 102.678 186.46 103.454C186.329 104.216 186.263 105.029 186.263 105.893ZM217.618 94.2256V99.3672H203.292V94.2256H217.618ZM206.302 88.3149H213.707V110.244C213.707 110.874 213.78 111.364 213.926 111.716C214.073 112.053 214.322 112.294 214.673 112.441C215.04 112.573 215.523 112.639 216.124 112.639C216.548 112.639 216.9 112.631 217.178 112.617C217.457 112.587 217.72 112.551 217.969 112.507V117.802C217.339 118.007 216.68 118.161 215.992 118.264C215.303 118.381 214.571 118.439 213.794 118.439C212.212 118.439 210.857 118.19 209.729 117.692C208.616 117.194 207.767 116.411 207.181 115.341C206.595 114.272 206.302 112.88 206.302 111.167V88.3149ZM227.857 115.209L234.009 94.2256H241.963L232.405 121.538C232.2 122.138 231.929 122.783 231.592 123.471C231.255 124.174 230.794 124.841 230.208 125.471C229.622 126.101 228.868 126.613 227.945 127.009C227.037 127.404 225.909 127.602 224.561 127.602C223.843 127.602 223.316 127.565 222.979 127.492C222.657 127.434 222.159 127.324 221.485 127.163V121.867C221.675 121.867 221.836 121.867 221.968 121.867C222.115 121.867 222.276 121.867 222.452 121.867C223.243 121.867 223.873 121.787 224.341 121.625C224.825 121.464 225.191 121.23 225.44 120.922C225.704 120.615 225.909 120.241 226.055 119.802L227.857 115.209ZM226.297 94.2256L230.977 110.859L231.79 118.703H226.824L218.365 94.2256H226.297ZM251.368 98.7959V127.141H243.963V94.2256H250.862L251.368 98.7959ZM265.958 105.827V106.289C265.958 108.017 265.76 109.621 265.364 111.101C264.969 112.58 264.383 113.869 263.606 114.968C262.83 116.066 261.863 116.923 260.706 117.539C259.563 118.139 258.238 118.439 256.729 118.439C255.308 118.439 254.085 118.125 253.06 117.495C252.034 116.865 251.177 115.993 250.489 114.88C249.8 113.767 249.244 112.492 248.819 111.057C248.394 109.621 248.057 108.105 247.808 106.508V105.915C248.057 104.201 248.394 102.612 248.819 101.147C249.244 99.6675 249.8 98.3784 250.489 97.2798C251.177 96.1812 252.027 95.3242 253.038 94.709C254.063 94.0938 255.286 93.7861 256.707 93.7861C258.216 93.7861 259.542 94.0718 260.684 94.6431C261.841 95.2144 262.808 96.0347 263.584 97.104C264.375 98.1587 264.969 99.4258 265.364 100.905C265.76 102.385 265.958 104.025 265.958 105.827ZM258.553 106.289V105.827C258.553 104.904 258.487 104.062 258.355 103.3C258.223 102.524 258.011 101.85 257.718 101.279C257.439 100.708 257.066 100.268 256.597 99.9604C256.128 99.6528 255.55 99.499 254.861 99.499C254.07 99.499 253.404 99.6235 252.862 99.8726C252.334 100.107 251.91 100.473 251.587 100.971C251.28 101.455 251.06 102.062 250.928 102.795C250.811 103.513 250.76 104.355 250.774 105.322V107.124C250.745 108.237 250.855 109.218 251.104 110.068C251.353 110.903 251.785 111.555 252.4 112.023C253.016 112.492 253.851 112.727 254.905 112.727C255.608 112.727 256.194 112.565 256.663 112.243C257.132 111.906 257.505 111.445 257.784 110.859C258.062 110.258 258.26 109.57 258.377 108.793C258.494 108.017 258.553 107.182 258.553 106.289ZM277.076 94.2256V118H269.649V94.2256H277.076ZM269.209 88.0952C269.209 87.0405 269.59 86.1763 270.352 85.5024C271.114 84.8286 272.103 84.4917 273.318 84.4917C274.534 84.4917 275.523 84.8286 276.285 85.5024C277.046 86.1763 277.427 87.0405 277.427 88.0952C277.427 89.1499 277.046 90.0142 276.285 90.688C275.523 91.3618 274.534 91.6987 273.318 91.6987C272.103 91.6987 271.114 91.3618 270.352 90.688C269.59 90.0142 269.209 89.1499 269.209 88.0952ZM288.919 99.3013V118H281.514V94.2256H288.458L288.919 99.3013ZM288.04 105.3L286.304 105.344C286.304 103.527 286.524 101.909 286.963 100.488C287.403 99.0522 288.025 97.8364 288.831 96.8403C289.637 95.8442 290.596 95.0898 291.709 94.5771C292.837 94.0498 294.09 93.7861 295.467 93.7861C296.565 93.7861 297.569 93.9473 298.477 94.2695C299.4 94.5918 300.191 95.1118 300.85 95.8296C301.524 96.5474 302.037 97.4995 302.388 98.686C302.754 99.8579 302.938 101.308 302.938 103.037V118H295.489V103.015C295.489 102.062 295.357 101.337 295.093 100.839C294.83 100.327 294.449 99.9751 293.951 99.7847C293.453 99.5942 292.845 99.499 292.127 99.499C291.365 99.499 290.721 99.6455 290.193 99.9385C289.666 100.231 289.241 100.642 288.919 101.169C288.611 101.682 288.384 102.29 288.238 102.993C288.106 103.696 288.04 104.465 288.04 105.3ZM321.988 94.2256H328.711V117.077C328.711 119.274 328.206 121.135 327.195 122.658C326.185 124.196 324.771 125.361 322.955 126.152C321.153 126.958 319.043 127.36 316.626 127.36C315.557 127.36 314.466 127.221 313.353 126.943C312.239 126.679 311.199 126.284 310.232 125.756C309.266 125.229 308.453 124.577 307.793 123.801L310.892 119.45C311.492 120.124 312.247 120.695 313.155 121.164C314.063 121.647 315.132 121.889 316.363 121.889C317.432 121.889 318.326 121.699 319.043 121.318C319.776 120.937 320.333 120.38 320.713 119.648C321.094 118.93 321.285 118.059 321.285 117.033V99.8506L321.988 94.2256ZM306.189 106.398V105.937C306.189 104.135 306.409 102.495 306.849 101.015C307.303 99.521 307.947 98.2393 308.782 97.1699C309.632 96.0859 310.657 95.251 311.858 94.665C313.06 94.0791 314.415 93.7861 315.923 93.7861C317.549 93.7861 318.882 94.1011 319.922 94.731C320.977 95.3462 321.819 96.2104 322.449 97.3237C323.094 98.437 323.592 99.7407 323.943 101.235C324.31 102.714 324.617 104.311 324.866 106.025V106.574C324.617 108.186 324.273 109.709 323.833 111.145C323.409 112.565 322.852 113.825 322.164 114.924C321.475 116.022 320.611 116.887 319.571 117.517C318.545 118.132 317.315 118.439 315.879 118.439C314.385 118.439 313.038 118.139 311.836 117.539C310.65 116.938 309.632 116.096 308.782 115.012C307.947 113.928 307.303 112.653 306.849 111.188C306.409 109.724 306.189 108.127 306.189 106.398ZM313.594 105.937V106.398C313.594 107.292 313.675 108.12 313.836 108.881C314.012 109.643 314.275 110.317 314.627 110.903C314.979 111.474 315.411 111.921 315.923 112.243C316.451 112.565 317.066 112.727 317.769 112.727C318.838 112.727 319.703 112.5 320.362 112.045C321.021 111.591 321.497 110.947 321.79 110.112C322.083 109.277 322.208 108.295 322.164 107.167V105.432C322.193 104.465 322.127 103.615 321.966 102.883C321.805 102.136 321.548 101.513 321.197 101.015C320.86 100.517 320.406 100.144 319.834 99.8945C319.278 99.6309 318.604 99.499 317.813 99.499C317.125 99.499 316.517 99.6602 315.989 99.9824C315.462 100.305 315.022 100.759 314.671 101.345C314.319 101.916 314.048 102.597 313.858 103.388C313.682 104.165 313.594 105.014 313.594 105.937Z" fill="#424241"/>
<path d="M1363 15C1363 6.71573 1356.28 0 1348 0H1134V167H1348C1356.28 167 1363 160.284 1363 152V15Z" fill="#0A61E1"/>
<path fill-rule="evenodd" clip-rule="evenodd" d="M1203 49C1203 47.8954 1203.9 47 1205 47H1292.5C1293.6 47 1294.5 47.8954 1294.5 49V118.996C1294.5 120.101 1293.6 120.996 1292.5 120.996H1205C1203.9 120.996 1203 120.101 1203 118.996V49ZM1207 51V55.4945H1290.5V51H1207ZM1290.5 59.4945H1235.44V116.996H1290.5V59.4945ZM1231.44 116.996V59.4945H1207V116.996H1231.44Z" fill="white"/>
<path fill-rule="evenodd" clip-rule="evenodd" d="M1209.97 64.8004C1209.97 63.6958 1210.87 62.8004 1211.97 62.8004H1225.97C1227.08 62.8004 1227.97 63.6958 1227.97 64.8004V84.1956C1227.97 85.3001 1227.08 86.1956 1225.97 86.1956H1211.97C1210.87 86.1956 1209.97 85.3001 1209.97 84.1956V64.8004ZM1213.97 66.8004V82.1956H1223.97V66.8004H1213.97ZM1239.58 65.6964C1239.58 64.5918 1240.47 63.6964 1241.58 63.6964H1284.5C1285.61 63.6964 1286.5 64.5918 1286.5 65.6964V111.905C1286.5 113.01 1285.61 113.905 1284.5 113.905H1241.58C1240.47 113.905 1239.58 113.01 1239.58 111.905V65.6964ZM1243.58 67.6964V109.905H1282.5V67.6964H1243.58ZM1209.81 95.9363C1209.81 94.8317 1210.71 93.9363 1211.81 93.9363H1220.73C1221.84 93.9363 1222.73 94.8317 1222.73 95.9363C1222.73 97.0409 1221.84 97.9363 1220.73 97.9363H1211.81C1210.71 97.9363 1209.81 97.0409 1209.81 95.9363ZM1209.81 102.936C1209.81 101.832 1210.71 100.936 1211.81 100.936H1226.35C1227.46 100.936 1228.35 101.832 1228.35 102.936C1228.35 104.041 1227.46 104.936 1226.35 104.936H1211.81C1210.71 104.936 1209.81 104.041 1209.81 102.936ZM1209.81 109.936C1209.81 108.832 1210.71 107.936 1211.81 107.936H1220.73C1221.84 107.936 1222.73 108.832 1222.73 109.936C1222.73 111.041 1221.84 111.936 1220.73 111.936H1211.81C1210.71 111.936 1209.81 111.041 1209.81 109.936Z" fill="white"/>
</svg>
