<svg width="1363" height="167" viewBox="0 0 1363 167" fill="none" xmlns="http://www.w3.org/2000/svg">
<rect width="1363" height="167" rx="15" fill="#F0F0F0"/>
<path d="M0 15C0 6.71573 6.71573 0 15 0H37V167H15C6.71573 167 0 160.284 0 152V15Z" fill="#424241"/>
<path d="M100.906 54.9219L93.3945 52.2383V49.0859L103.602 53.375V55.6367L100.906 54.9219ZM93.3945 57.1719L100.918 54.4297L103.602 53.7852V56.0352L93.3945 60.3242V57.1719ZM116.012 59.293L119.41 44.9375H121.309L121.742 47.3281L118.121 62H116.082L116.012 59.293ZM114.266 44.9375L117.078 59.293L116.844 62H114.57L110.785 44.9375H114.266ZM124.73 59.2344L127.508 44.9375H130.988L127.215 62H124.941L124.73 59.2344ZM122.375 44.9375L125.797 59.3516L125.703 62H123.664L120.02 47.3164L120.488 44.9375H122.375ZM135.98 44V62H132.605V44H135.98ZM135.5 55.2148H134.574C134.582 54.332 134.699 53.5195 134.926 52.7773C135.152 52.0273 135.477 51.3789 135.898 50.832C136.32 50.2773 136.824 49.8477 137.41 49.543C138.004 49.2383 138.66 49.0859 139.379 49.0859C140.004 49.0859 140.57 49.1758 141.078 49.3555C141.594 49.5273 142.035 49.8086 142.402 50.1992C142.777 50.582 143.066 51.0859 143.27 51.7109C143.473 52.3359 143.574 53.0938 143.574 53.9844V62H140.176V53.9609C140.176 53.3984 140.094 52.957 139.93 52.6367C139.773 52.3086 139.543 52.0781 139.238 51.9453C138.941 51.8047 138.574 51.7344 138.137 51.7344C137.652 51.7344 137.238 51.8242 136.895 52.0039C136.559 52.1836 136.289 52.4336 136.086 52.7539C135.883 53.0664 135.734 53.4336 135.641 53.8555C135.547 54.2773 135.5 54.7305 135.5 55.2148ZM151.977 62.2344C150.992 62.2344 150.109 62.0781 149.328 61.7656C148.547 61.4453 147.883 61.0039 147.336 60.4414C146.797 59.8789 146.383 59.2266 146.094 58.4844C145.805 57.7344 145.66 56.9375 145.66 56.0938V55.625C145.66 54.6641 145.797 53.7852 146.07 52.9883C146.344 52.1914 146.734 51.5 147.242 50.9141C147.758 50.3281 148.383 49.8789 149.117 49.5664C149.852 49.2461 150.68 49.0859 151.602 49.0859C152.5 49.0859 153.297 49.2344 153.992 49.5312C154.688 49.8281 155.27 50.25 155.738 50.7969C156.215 51.3438 156.574 52 156.816 52.7656C157.059 53.5234 157.18 54.3672 157.18 55.2969V56.7031H147.102V54.4531H153.863V54.1953C153.863 53.7266 153.777 53.3086 153.605 52.9414C153.441 52.5664 153.191 52.2695 152.855 52.0508C152.52 51.832 152.09 51.7227 151.566 51.7227C151.121 51.7227 150.738 51.8203 150.418 52.0156C150.098 52.2109 149.836 52.4844 149.633 52.8359C149.438 53.1875 149.289 53.6016 149.188 54.0781C149.094 54.5469 149.047 55.0625 149.047 55.625V56.0938C149.047 56.6016 149.117 57.0703 149.258 57.5C149.406 57.9297 149.613 58.3008 149.879 58.6133C150.152 58.9258 150.48 59.168 150.863 59.3398C151.254 59.5117 151.695 59.5977 152.188 59.5977C152.797 59.5977 153.363 59.4805 153.887 59.2461C154.418 59.0039 154.875 58.6406 155.258 58.1562L156.898 59.9375C156.633 60.3203 156.27 60.6875 155.809 61.0391C155.355 61.3906 154.809 61.6797 154.168 61.9062C153.527 62.125 152.797 62.2344 151.977 62.2344ZM164.938 62.2344C163.953 62.2344 163.07 62.0781 162.289 61.7656C161.508 61.4453 160.844 61.0039 160.297 60.4414C159.758 59.8789 159.344 59.2266 159.055 58.4844C158.766 57.7344 158.621 56.9375 158.621 56.0938V55.625C158.621 54.6641 158.758 53.7852 159.031 52.9883C159.305 52.1914 159.695 51.5 160.203 50.9141C160.719 50.3281 161.344 49.8789 162.078 49.5664C162.812 49.2461 163.641 49.0859 164.562 49.0859C165.461 49.0859 166.258 49.2344 166.953 49.5312C167.648 49.8281 168.23 50.25 168.699 50.7969C169.176 51.3438 169.535 52 169.777 52.7656C170.02 53.5234 170.141 54.3672 170.141 55.2969V56.7031H160.062V54.4531H166.824V54.1953C166.824 53.7266 166.738 53.3086 166.566 52.9414C166.402 52.5664 166.152 52.2695 165.816 52.0508C165.48 51.832 165.051 51.7227 164.527 51.7227C164.082 51.7227 163.699 51.8203 163.379 52.0156C163.059 52.2109 162.797 52.4844 162.594 52.8359C162.398 53.1875 162.25 53.6016 162.148 54.0781C162.055 54.5469 162.008 55.0625 162.008 55.625V56.0938C162.008 56.6016 162.078 57.0703 162.219 57.5C162.367 57.9297 162.574 58.3008 162.84 58.6133C163.113 58.9258 163.441 59.168 163.824 59.3398C164.215 59.5117 164.656 59.5977 165.148 59.5977C165.758 59.5977 166.324 59.4805 166.848 59.2461C167.379 59.0039 167.836 58.6406 168.219 58.1562L169.859 59.9375C169.594 60.3203 169.23 60.6875 168.77 61.0391C168.316 61.3906 167.77 61.6797 167.129 61.9062C166.488 62.125 165.758 62.2344 164.938 62.2344ZM175.625 44V62H172.238V44H175.625ZM183.852 55.7891V55.543C183.852 54.6133 183.984 53.7578 184.25 52.9766C184.516 52.1875 184.902 51.5039 185.41 50.9258C185.918 50.3477 186.543 49.8984 187.285 49.5781C188.027 49.25 188.879 49.0859 189.84 49.0859C190.801 49.0859 191.656 49.25 192.406 49.5781C193.156 49.8984 193.785 50.3477 194.293 50.9258C194.809 51.5039 195.199 52.1875 195.465 52.9766C195.73 53.7578 195.863 54.6133 195.863 55.543V55.7891C195.863 56.7109 195.73 57.5664 195.465 58.3555C195.199 59.1367 194.809 59.8203 194.293 60.4062C193.785 60.9844 193.16 61.4336 192.418 61.7539C191.676 62.0742 190.824 62.2344 189.863 62.2344C188.902 62.2344 188.047 62.0742 187.297 61.7539C186.555 61.4336 185.926 60.9844 185.41 60.4062C184.902 59.8203 184.516 59.1367 184.25 58.3555C183.984 57.5664 183.852 56.7109 183.852 55.7891ZM187.227 55.543V55.7891C187.227 56.3203 187.273 56.8164 187.367 57.2773C187.461 57.7383 187.609 58.1445 187.812 58.4961C188.023 58.8398 188.297 59.1094 188.633 59.3047C188.969 59.5 189.379 59.5977 189.863 59.5977C190.332 59.5977 190.734 59.5 191.07 59.3047C191.406 59.1094 191.676 58.8398 191.879 58.4961C192.082 58.1445 192.23 57.7383 192.324 57.2773C192.426 56.8164 192.477 56.3203 192.477 55.7891V55.543C192.477 55.0273 192.426 54.543 192.324 54.0898C192.23 53.6289 192.078 53.2227 191.867 52.8711C191.664 52.5117 191.395 52.2305 191.059 52.0273C190.723 51.8242 190.316 51.7227 189.84 51.7227C189.363 51.7227 188.957 51.8242 188.621 52.0273C188.293 52.2305 188.023 52.5117 187.812 52.8711C187.609 53.2227 187.461 53.6289 187.367 54.0898C187.273 54.543 187.227 55.0273 187.227 55.543ZM202.238 62H198.84V48.1953C198.84 47.2344 199.027 46.4258 199.402 45.7695C199.785 45.1055 200.32 44.6055 201.008 44.2695C201.703 43.9258 202.527 43.7539 203.48 43.7539C203.793 43.7539 204.094 43.7773 204.383 43.8242C204.672 43.8633 204.953 43.9141 205.227 43.9766L205.191 46.5195C205.043 46.4805 204.887 46.4531 204.723 46.4375C204.559 46.4219 204.367 46.4141 204.148 46.4141C203.742 46.4141 203.395 46.4844 203.105 46.625C202.824 46.7578 202.609 46.957 202.461 47.2227C202.312 47.4883 202.238 47.8125 202.238 48.1953V62ZM204.77 49.3203V51.7109H196.953V49.3203H204.77ZM223.695 59.2578V62H215.105V59.2578H223.695ZM216.242 44.9375V62H212.727V44.9375H216.242ZM229.062 49.3203V62H225.676V49.3203H229.062ZM225.465 46.0156C225.465 45.5234 225.637 45.1172 225.98 44.7969C226.324 44.4766 226.785 44.3164 227.363 44.3164C227.934 44.3164 228.391 44.4766 228.734 44.7969C229.086 45.1172 229.262 45.5234 229.262 46.0156C229.262 46.5078 229.086 46.9141 228.734 47.2344C228.391 47.5547 227.934 47.7148 227.363 47.7148C226.785 47.7148 226.324 47.5547 225.98 47.2344C225.637 46.9141 225.465 46.5078 225.465 46.0156ZM236.152 62H232.754V48.1953C232.754 47.2344 232.941 46.4258 233.316 45.7695C233.699 45.1055 234.234 44.6055 234.922 44.2695C235.617 43.9258 236.441 43.7539 237.395 43.7539C237.707 43.7539 238.008 43.7773 238.297 43.8242C238.586 43.8633 238.867 43.9141 239.141 43.9766L239.105 46.5195C238.957 46.4805 238.801 46.4531 238.637 46.4375C238.473 46.4219 238.281 46.4141 238.062 46.4141C237.656 46.4141 237.309 46.4844 237.02 46.625C236.738 46.7578 236.523 46.957 236.375 47.2227C236.227 47.4883 236.152 47.8125 236.152 48.1953V62ZM238.684 49.3203V51.7109H230.867V49.3203H238.684ZM246.008 62.2344C245.023 62.2344 244.141 62.0781 243.359 61.7656C242.578 61.4453 241.914 61.0039 241.367 60.4414C240.828 59.8789 240.414 59.2266 240.125 58.4844C239.836 57.7344 239.691 56.9375 239.691 56.0938V55.625C239.691 54.6641 239.828 53.7852 240.102 52.9883C240.375 52.1914 240.766 51.5 241.273 50.9141C241.789 50.3281 242.414 49.8789 243.148 49.5664C243.883 49.2461 244.711 49.0859 245.633 49.0859C246.531 49.0859 247.328 49.2344 248.023 49.5312C248.719 49.8281 249.301 50.25 249.77 50.7969C250.246 51.3438 250.605 52 250.848 52.7656C251.09 53.5234 251.211 54.3672 251.211 55.2969V56.7031H241.133V54.4531H247.895V54.1953C247.895 53.7266 247.809 53.3086 247.637 52.9414C247.473 52.5664 247.223 52.2695 246.887 52.0508C246.551 51.832 246.121 51.7227 245.598 51.7227C245.152 51.7227 244.77 51.8203 244.449 52.0156C244.129 52.2109 243.867 52.4844 243.664 52.8359C243.469 53.1875 243.32 53.6016 243.219 54.0781C243.125 54.5469 243.078 55.0625 243.078 55.625V56.0938C243.078 56.6016 243.148 57.0703 243.289 57.5C243.438 57.9297 243.645 58.3008 243.91 58.6133C244.184 58.9258 244.512 59.168 244.895 59.3398C245.285 59.5117 245.727 59.5977 246.219 59.5977C246.828 59.5977 247.395 59.4805 247.918 59.2461C248.449 59.0039 248.906 58.6406 249.289 58.1562L250.93 59.9375C250.664 60.3203 250.301 60.6875 249.84 61.0391C249.387 61.3906 248.84 61.6797 248.199 61.9062C247.559 62.125 246.828 62.2344 246.008 62.2344Z" fill="#888888"/>
<path d="M115.994 98.708V104.641H99.5806V98.708H115.994ZM102.151 86.0078V118H94.439V86.0078H102.151ZM121.18 86.0078V118H113.489V86.0078H121.18ZM124.805 106.354V105.893C124.805 104.15 125.054 102.546 125.552 101.081C126.05 99.6016 126.783 98.3198 127.75 97.2358C128.716 96.1519 129.91 95.3096 131.331 94.709C132.752 94.0938 134.393 93.7861 136.253 93.7861C138.128 93.7861 139.776 94.0938 141.197 94.709C142.632 95.3096 143.833 96.1519 144.8 97.2358C145.767 98.3198 146.5 99.6016 146.998 101.081C147.496 102.546 147.745 104.15 147.745 105.893V106.354C147.745 108.083 147.496 109.687 146.998 111.167C146.5 112.631 145.767 113.913 144.8 115.012C143.833 116.096 142.64 116.938 141.219 117.539C139.798 118.139 138.157 118.439 136.297 118.439C134.437 118.439 132.789 118.139 131.353 117.539C129.917 116.938 128.716 116.096 127.75 115.012C126.783 113.913 126.05 112.631 125.552 111.167C125.054 109.687 124.805 108.083 124.805 106.354ZM132.21 105.893V106.354C132.21 107.248 132.276 108.083 132.408 108.859C132.54 109.636 132.759 110.317 133.067 110.903C133.375 111.474 133.792 111.921 134.319 112.243C134.847 112.565 135.506 112.727 136.297 112.727C137.073 112.727 137.718 112.565 138.23 112.243C138.758 111.921 139.175 111.474 139.483 110.903C139.791 110.317 140.01 109.636 140.142 108.859C140.274 108.083 140.34 107.248 140.34 106.354V105.893C140.34 105.029 140.274 104.216 140.142 103.454C140.01 102.678 139.791 101.997 139.483 101.411C139.175 100.81 138.758 100.341 138.23 100.004C137.703 99.6675 137.044 99.499 136.253 99.499C135.477 99.499 134.825 99.6675 134.297 100.004C133.785 100.341 133.375 100.81 133.067 101.411C132.759 101.997 132.54 102.678 132.408 103.454C132.276 104.216 132.21 105.029 132.21 105.893ZM158.27 110.925L162.664 94.2256H167.3L165.652 102.597L161.302 118H157.588L158.27 110.925ZM156.534 94.2256L159.258 110.793L159.566 118H155.062L149.437 94.2256H156.534ZM171.211 110.441L173.958 94.2256H181.055L175.474 118H170.97L171.211 110.441ZM167.828 94.2256L172.266 110.881L172.947 118H169.19L164.927 102.641L163.345 94.2256H167.828ZM209.466 86.0078V118H201.753V86.0078H209.466ZM219.09 86.0078V91.9624H192.349V86.0078H219.09ZM216.475 106.354V105.893C216.475 104.15 216.724 102.546 217.222 101.081C217.72 99.6016 218.453 98.3198 219.419 97.2358C220.386 96.1519 221.58 95.3096 223.001 94.709C224.422 94.0938 226.062 93.7861 227.923 93.7861C229.798 93.7861 231.446 94.0938 232.867 94.709C234.302 95.3096 235.503 96.1519 236.47 97.2358C237.437 98.3198 238.169 99.6016 238.667 101.081C239.166 102.546 239.415 104.15 239.415 105.893V106.354C239.415 108.083 239.166 109.687 238.667 111.167C238.169 112.631 237.437 113.913 236.47 115.012C235.503 116.096 234.31 116.938 232.889 117.539C231.468 118.139 229.827 118.439 227.967 118.439C226.106 118.439 224.458 118.139 223.023 117.539C221.587 116.938 220.386 116.096 219.419 115.012C218.453 113.913 217.72 112.631 217.222 111.167C216.724 109.687 216.475 108.083 216.475 106.354ZM223.88 105.893V106.354C223.88 107.248 223.946 108.083 224.078 108.859C224.209 109.636 224.429 110.317 224.737 110.903C225.044 111.474 225.462 111.921 225.989 112.243C226.517 112.565 227.176 112.727 227.967 112.727C228.743 112.727 229.388 112.565 229.9 112.243C230.428 111.921 230.845 111.474 231.153 110.903C231.46 110.317 231.68 109.636 231.812 108.859C231.944 108.083 232.01 107.248 232.01 106.354V105.893C232.01 105.029 231.944 104.216 231.812 103.454C231.68 102.678 231.46 101.997 231.153 101.411C230.845 100.81 230.428 100.341 229.9 100.004C229.373 99.6675 228.714 99.499 227.923 99.499C227.146 99.499 226.495 99.6675 225.967 100.004C225.455 100.341 225.044 100.81 224.737 101.411C224.429 101.997 224.209 102.678 224.078 103.454C223.946 104.216 223.88 105.029 223.88 105.893ZM254.268 86.0078H266.858C269.319 86.0078 271.458 86.374 273.274 87.1064C275.091 87.8389 276.49 88.9229 277.471 90.3584C278.467 91.7939 278.965 93.5664 278.965 95.6758C278.965 97.5068 278.68 99.0376 278.108 100.268C277.537 101.499 276.739 102.517 275.713 103.322C274.703 104.113 273.523 104.765 272.176 105.278L269.649 106.706H259.08L259.036 100.751H266.858C267.84 100.751 268.653 100.576 269.297 100.224C269.942 99.8726 270.425 99.3745 270.748 98.73C271.084 98.0708 271.253 97.2871 271.253 96.3789C271.253 95.4561 271.084 94.665 270.748 94.0059C270.411 93.3467 269.913 92.8413 269.253 92.4897C268.609 92.1382 267.811 91.9624 266.858 91.9624H261.98V118H254.268V86.0078ZM271.78 118L264.705 103.85L272.879 103.806L280.042 117.67V118H271.78ZM297.159 112.221V94.2256H304.585V118H297.642L297.159 112.221ZM297.862 107.387L299.795 107.343C299.795 108.94 299.605 110.419 299.224 111.782C298.843 113.129 298.279 114.301 297.532 115.297C296.8 116.293 295.892 117.07 294.808 117.626C293.738 118.168 292.5 118.439 291.094 118.439C289.922 118.439 288.846 118.278 287.864 117.956C286.897 117.619 286.062 117.099 285.359 116.396C284.656 115.678 284.107 114.763 283.711 113.649C283.331 112.521 283.14 111.174 283.14 109.606V94.2256H290.545V109.65C290.545 110.178 290.611 110.632 290.743 111.013C290.875 111.394 291.065 111.716 291.314 111.979C291.563 112.229 291.871 112.419 292.237 112.551C292.618 112.668 293.05 112.727 293.533 112.727C294.646 112.727 295.518 112.492 296.148 112.023C296.778 111.555 297.217 110.917 297.466 110.112C297.73 109.306 297.862 108.398 297.862 107.387ZM315.945 99.3013V118H308.541V94.2256H315.484L315.945 99.3013ZM315.066 105.3L313.331 105.344C313.331 103.527 313.55 101.909 313.99 100.488C314.429 99.0522 315.052 97.8364 315.857 96.8403C316.663 95.8442 317.623 95.0898 318.736 94.5771C319.864 94.0498 321.116 93.7861 322.493 93.7861C323.592 93.7861 324.595 93.9473 325.503 94.2695C326.426 94.5918 327.217 95.1118 327.876 95.8296C328.55 96.5474 329.063 97.4995 329.415 98.686C329.781 99.8579 329.964 101.308 329.964 103.037V118H322.515V103.015C322.515 102.062 322.383 101.337 322.12 100.839C321.856 100.327 321.475 99.9751 320.977 99.7847C320.479 99.5942 319.871 99.499 319.153 99.499C318.392 99.499 317.747 99.6455 317.22 99.9385C316.692 100.231 316.268 100.642 315.945 101.169C315.638 101.682 315.411 102.29 315.264 102.993C315.132 103.696 315.066 104.465 315.066 105.3ZM345.85 107.871H339.544C339.544 106.582 339.632 105.446 339.808 104.465C339.998 103.469 340.32 102.575 340.774 101.784C341.229 100.993 341.844 100.261 342.62 99.5869C343.309 99.0156 343.902 98.4663 344.4 97.939C344.898 97.4116 345.279 96.877 345.542 96.335C345.806 95.793 345.938 95.2144 345.938 94.5991C345.938 93.8374 345.828 93.2148 345.608 92.7314C345.403 92.248 345.088 91.8892 344.664 91.6548C344.253 91.4058 343.733 91.2812 343.104 91.2812C342.591 91.2812 342.107 91.4058 341.653 91.6548C341.214 91.9038 340.855 92.292 340.577 92.8193C340.298 93.332 340.145 94.0132 340.115 94.8628H332.667C332.71 92.6802 333.194 90.9077 334.117 89.5454C335.054 88.1685 336.299 87.165 337.852 86.5352C339.419 85.8906 341.17 85.5684 343.104 85.5684C345.242 85.5684 347.081 85.8979 348.619 86.5571C350.157 87.2163 351.336 88.1978 352.156 89.5015C352.977 90.7905 353.387 92.3799 353.387 94.2695C353.387 95.5293 353.145 96.6279 352.662 97.5654C352.193 98.4883 351.556 99.3525 350.75 100.158C349.959 100.949 349.073 101.799 348.091 102.707C347.242 103.454 346.663 104.216 346.355 104.992C346.048 105.754 345.879 106.713 345.85 107.871ZM338.643 114.55C338.643 113.496 339.024 112.617 339.786 111.914C340.547 111.196 341.536 110.837 342.752 110.837C343.968 110.837 344.957 111.196 345.718 111.914C346.48 112.617 346.861 113.496 346.861 114.55C346.861 115.605 346.48 116.491 345.718 117.209C344.957 117.912 343.968 118.264 342.752 118.264C341.536 118.264 340.547 117.912 339.786 117.209C339.024 116.491 338.643 115.605 338.643 114.55Z" fill="#424241"/>
<path d="M1363 15C1363 6.71573 1356.28 0 1348 0H1134V167H1348C1356.28 167 1363 160.284 1363 152V15Z" fill="#0A61E1"/>
<path d="M1260.77 81.3079C1263.96 81.3079 1267.09 82.2553 1269.74 84.0303C1272.4 85.8053 1274.47 88.3282 1275.69 91.2799C1276.92 94.2316 1277.24 97.4796 1276.61 100.613C1275.99 103.747 1274.45 106.625 1272.19 108.884C1269.93 111.143 1267.05 112.682 1263.92 113.305C1260.79 113.928 1257.54 113.608 1254.59 112.386C1251.64 111.163 1249.11 109.093 1247.34 106.436C1245.56 103.78 1244.62 100.657 1244.62 97.4617C1244.62 93.1774 1246.32 89.0686 1249.35 86.0392C1252.38 83.0098 1256.48 81.3079 1260.77 81.3079ZM1260.77 75.9233C1256.51 75.9233 1252.35 77.1865 1248.8 79.5532C1245.26 81.9198 1242.5 85.2837 1240.87 89.2193C1239.24 93.1549 1238.81 97.4856 1239.64 101.664C1240.48 105.842 1242.53 109.679 1245.54 112.692C1248.55 115.704 1252.39 117.755 1256.57 118.586C1260.75 119.417 1265.08 118.991 1269.01 117.361C1272.95 115.73 1276.31 112.97 1278.68 109.428C1281.04 105.886 1282.31 101.722 1282.31 97.4617C1282.31 91.7493 1280.04 86.271 1276 82.2317C1271.96 78.1925 1266.48 75.9233 1260.77 75.9233Z" fill="white"/>
<path d="M1274.23 49H1220.38C1218.96 49 1217.59 49.5673 1216.58 50.5771C1215.57 51.5869 1215 52.9565 1215 54.3846V108.231C1215 109.659 1215.57 111.028 1216.58 112.038C1217.59 113.048 1218.96 113.615 1220.38 113.615H1231.15V108.231H1220.38V70.5384H1279.62V54.3846C1279.62 52.9565 1279.05 51.5869 1278.04 50.5771C1277.03 49.5673 1275.66 49 1274.23 49ZM1220.38 65.1538V54.3846H1274.23V65.1538H1220.38Z" fill="white"/>
<path d="M1255.38 89.3849V105.539L1268.85 97.4618L1255.38 89.3849Z" fill="white"/>
</svg>
