<svg width="1363" height="167" viewBox="0 0 1363 167" fill="none" xmlns="http://www.w3.org/2000/svg">
<rect width="1363" height="167" rx="15" fill="#F0F0F0"/>
<path d="M0 15C0 6.71573 6.71573 0 15 0H37V167H15C6.71573 167 0 160.284 0 152V15Z" fill="#424241"/>
<path d="M100.906 50.9219L93.3945 48.2383V45.0859L103.602 49.375V51.6367L100.906 50.9219ZM93.3945 53.1719L100.918 50.4297L103.602 49.7852V52.0352L93.3945 56.3242V53.1719ZM116.012 55.293L119.41 40.9375H121.309L121.742 43.3281L118.121 58H116.082L116.012 55.293ZM114.266 40.9375L117.078 55.293L116.844 58H114.57L110.785 40.9375H114.266ZM124.73 55.2344L127.508 40.9375H130.988L127.215 58H124.941L124.73 55.2344ZM122.375 40.9375L125.797 55.3516L125.703 58H123.664L120.02 43.3164L120.488 40.9375H122.375ZM135.98 40V58H132.605V40H135.98ZM135.5 51.2148H134.574C134.582 50.332 134.699 49.5195 134.926 48.7773C135.152 48.0273 135.477 47.3789 135.898 46.832C136.32 46.2773 136.824 45.8477 137.41 45.543C138.004 45.2383 138.66 45.0859 139.379 45.0859C140.004 45.0859 140.57 45.1758 141.078 45.3555C141.594 45.5273 142.035 45.8086 142.402 46.1992C142.777 46.582 143.066 47.0859 143.27 47.7109C143.473 48.3359 143.574 49.0938 143.574 49.9844V58H140.176V49.9609C140.176 49.3984 140.094 48.957 139.93 48.6367C139.773 48.3086 139.543 48.0781 139.238 47.9453C138.941 47.8047 138.574 47.7344 138.137 47.7344C137.652 47.7344 137.238 47.8242 136.895 48.0039C136.559 48.1836 136.289 48.4336 136.086 48.7539C135.883 49.0664 135.734 49.4336 135.641 49.8555C135.547 50.2773 135.5 50.7305 135.5 51.2148ZM151.977 58.2344C150.992 58.2344 150.109 58.0781 149.328 57.7656C148.547 57.4453 147.883 57.0039 147.336 56.4414C146.797 55.8789 146.383 55.2266 146.094 54.4844C145.805 53.7344 145.66 52.9375 145.66 52.0938V51.625C145.66 50.6641 145.797 49.7852 146.07 48.9883C146.344 48.1914 146.734 47.5 147.242 46.9141C147.758 46.3281 148.383 45.8789 149.117 45.5664C149.852 45.2461 150.68 45.0859 151.602 45.0859C152.5 45.0859 153.297 45.2344 153.992 45.5312C154.688 45.8281 155.27 46.25 155.738 46.7969C156.215 47.3438 156.574 48 156.816 48.7656C157.059 49.5234 157.18 50.3672 157.18 51.2969V52.7031H147.102V50.4531H153.863V50.1953C153.863 49.7266 153.777 49.3086 153.605 48.9414C153.441 48.5664 153.191 48.2695 152.855 48.0508C152.52 47.832 152.09 47.7227 151.566 47.7227C151.121 47.7227 150.738 47.8203 150.418 48.0156C150.098 48.2109 149.836 48.4844 149.633 48.8359C149.438 49.1875 149.289 49.6016 149.188 50.0781C149.094 50.5469 149.047 51.0625 149.047 51.625V52.0938C149.047 52.6016 149.117 53.0703 149.258 53.5C149.406 53.9297 149.613 54.3008 149.879 54.6133C150.152 54.9258 150.48 55.168 150.863 55.3398C151.254 55.5117 151.695 55.5977 152.188 55.5977C152.797 55.5977 153.363 55.4805 153.887 55.2461C154.418 55.0039 154.875 54.6406 155.258 54.1562L156.898 55.9375C156.633 56.3203 156.27 56.6875 155.809 57.0391C155.355 57.3906 154.809 57.6797 154.168 57.9062C153.527 58.125 152.797 58.2344 151.977 58.2344ZM164.938 58.2344C163.953 58.2344 163.07 58.0781 162.289 57.7656C161.508 57.4453 160.844 57.0039 160.297 56.4414C159.758 55.8789 159.344 55.2266 159.055 54.4844C158.766 53.7344 158.621 52.9375 158.621 52.0938V51.625C158.621 50.6641 158.758 49.7852 159.031 48.9883C159.305 48.1914 159.695 47.5 160.203 46.9141C160.719 46.3281 161.344 45.8789 162.078 45.5664C162.812 45.2461 163.641 45.0859 164.562 45.0859C165.461 45.0859 166.258 45.2344 166.953 45.5312C167.648 45.8281 168.23 46.25 168.699 46.7969C169.176 47.3438 169.535 48 169.777 48.7656C170.02 49.5234 170.141 50.3672 170.141 51.2969V52.7031H160.062V50.4531H166.824V50.1953C166.824 49.7266 166.738 49.3086 166.566 48.9414C166.402 48.5664 166.152 48.2695 165.816 48.0508C165.48 47.832 165.051 47.7227 164.527 47.7227C164.082 47.7227 163.699 47.8203 163.379 48.0156C163.059 48.2109 162.797 48.4844 162.594 48.8359C162.398 49.1875 162.25 49.6016 162.148 50.0781C162.055 50.5469 162.008 51.0625 162.008 51.625V52.0938C162.008 52.6016 162.078 53.0703 162.219 53.5C162.367 53.9297 162.574 54.3008 162.84 54.6133C163.113 54.9258 163.441 55.168 163.824 55.3398C164.215 55.5117 164.656 55.5977 165.148 55.5977C165.758 55.5977 166.324 55.4805 166.848 55.2461C167.379 55.0039 167.836 54.6406 168.219 54.1562L169.859 55.9375C169.594 56.3203 169.23 56.6875 168.77 57.0391C168.316 57.3906 167.77 57.6797 167.129 57.9062C166.488 58.125 165.758 58.2344 164.938 58.2344ZM175.625 40V58H172.238V40H175.625ZM183.852 51.7891V51.543C183.852 50.6133 183.984 49.7578 184.25 48.9766C184.516 48.1875 184.902 47.5039 185.41 46.9258C185.918 46.3477 186.543 45.8984 187.285 45.5781C188.027 45.25 188.879 45.0859 189.84 45.0859C190.801 45.0859 191.656 45.25 192.406 45.5781C193.156 45.8984 193.785 46.3477 194.293 46.9258C194.809 47.5039 195.199 48.1875 195.465 48.9766C195.73 49.7578 195.863 50.6133 195.863 51.543V51.7891C195.863 52.7109 195.73 53.5664 195.465 54.3555C195.199 55.1367 194.809 55.8203 194.293 56.4062C193.785 56.9844 193.16 57.4336 192.418 57.7539C191.676 58.0742 190.824 58.2344 189.863 58.2344C188.902 58.2344 188.047 58.0742 187.297 57.7539C186.555 57.4336 185.926 56.9844 185.41 56.4062C184.902 55.8203 184.516 55.1367 184.25 54.3555C183.984 53.5664 183.852 52.7109 183.852 51.7891ZM187.227 51.543V51.7891C187.227 52.3203 187.273 52.8164 187.367 53.2773C187.461 53.7383 187.609 54.1445 187.812 54.4961C188.023 54.8398 188.297 55.1094 188.633 55.3047C188.969 55.5 189.379 55.5977 189.863 55.5977C190.332 55.5977 190.734 55.5 191.07 55.3047C191.406 55.1094 191.676 54.8398 191.879 54.4961C192.082 54.1445 192.23 53.7383 192.324 53.2773C192.426 52.8164 192.477 52.3203 192.477 51.7891V51.543C192.477 51.0273 192.426 50.543 192.324 50.0898C192.23 49.6289 192.078 49.2227 191.867 48.8711C191.664 48.5117 191.395 48.2305 191.059 48.0273C190.723 47.8242 190.316 47.7227 189.84 47.7227C189.363 47.7227 188.957 47.8242 188.621 48.0273C188.293 48.2305 188.023 48.5117 187.812 48.8711C187.609 49.2227 187.461 49.6289 187.367 50.0898C187.273 50.543 187.227 51.0273 187.227 51.543ZM202.238 58H198.84V44.1953C198.84 43.2344 199.027 42.4258 199.402 41.7695C199.785 41.1055 200.32 40.6055 201.008 40.2695C201.703 39.9258 202.527 39.7539 203.48 39.7539C203.793 39.7539 204.094 39.7773 204.383 39.8242C204.672 39.8633 204.953 39.9141 205.227 39.9766L205.191 42.5195C205.043 42.4805 204.887 42.4531 204.723 42.4375C204.559 42.4219 204.367 42.4141 204.148 42.4141C203.742 42.4141 203.395 42.4844 203.105 42.625C202.824 42.7578 202.609 42.957 202.461 43.2227C202.312 43.4883 202.238 43.8125 202.238 44.1953V58ZM204.77 45.3203V47.7109H196.953V45.3203H204.77ZM223.695 55.2578V58H215.105V55.2578H223.695ZM216.242 40.9375V58H212.727V40.9375H216.242ZM229.062 45.3203V58H225.676V45.3203H229.062ZM225.465 42.0156C225.465 41.5234 225.637 41.1172 225.98 40.7969C226.324 40.4766 226.785 40.3164 227.363 40.3164C227.934 40.3164 228.391 40.4766 228.734 40.7969C229.086 41.1172 229.262 41.5234 229.262 42.0156C229.262 42.5078 229.086 42.9141 228.734 43.2344C228.391 43.5547 227.934 43.7148 227.363 43.7148C226.785 43.7148 226.324 43.5547 225.98 43.2344C225.637 42.9141 225.465 42.5078 225.465 42.0156ZM236.152 58H232.754V44.1953C232.754 43.2344 232.941 42.4258 233.316 41.7695C233.699 41.1055 234.234 40.6055 234.922 40.2695C235.617 39.9258 236.441 39.7539 237.395 39.7539C237.707 39.7539 238.008 39.7773 238.297 39.8242C238.586 39.8633 238.867 39.9141 239.141 39.9766L239.105 42.5195C238.957 42.4805 238.801 42.4531 238.637 42.4375C238.473 42.4219 238.281 42.4141 238.062 42.4141C237.656 42.4141 237.309 42.4844 237.02 42.625C236.738 42.7578 236.523 42.957 236.375 43.2227C236.227 43.4883 236.152 43.8125 236.152 44.1953V58ZM238.684 45.3203V47.7109H230.867V45.3203H238.684ZM246.008 58.2344C245.023 58.2344 244.141 58.0781 243.359 57.7656C242.578 57.4453 241.914 57.0039 241.367 56.4414C240.828 55.8789 240.414 55.2266 240.125 54.4844C239.836 53.7344 239.691 52.9375 239.691 52.0938V51.625C239.691 50.6641 239.828 49.7852 240.102 48.9883C240.375 48.1914 240.766 47.5 241.273 46.9141C241.789 46.3281 242.414 45.8789 243.148 45.5664C243.883 45.2461 244.711 45.0859 245.633 45.0859C246.531 45.0859 247.328 45.2344 248.023 45.5312C248.719 45.8281 249.301 46.25 249.77 46.7969C250.246 47.3438 250.605 48 250.848 48.7656C251.09 49.5234 251.211 50.3672 251.211 51.2969V52.7031H241.133V50.4531H247.895V50.1953C247.895 49.7266 247.809 49.3086 247.637 48.9414C247.473 48.5664 247.223 48.2695 246.887 48.0508C246.551 47.832 246.121 47.7227 245.598 47.7227C245.152 47.7227 244.77 47.8203 244.449 48.0156C244.129 48.2109 243.867 48.4844 243.664 48.8359C243.469 49.1875 243.32 49.6016 243.219 50.0781C243.125 50.5469 243.078 51.0625 243.078 51.625V52.0938C243.078 52.6016 243.148 53.0703 243.289 53.5C243.438 53.9297 243.645 54.3008 243.91 54.6133C244.184 54.9258 244.512 55.168 244.895 55.3398C245.285 55.5117 245.727 55.5977 246.219 55.5977C246.828 55.5977 247.395 55.4805 247.918 55.2461C248.449 55.0039 248.906 54.6406 249.289 54.1562L250.93 55.9375C250.664 56.3203 250.301 56.6875 249.84 57.0391C249.387 57.3906 248.84 57.6797 248.199 57.9062C247.559 58.125 246.828 58.2344 246.008 58.2344Z" fill="#888888"/>
<path d="M109.93 86.0078V118H102.217V86.0078H109.93ZM119.554 86.0078V91.9624H92.813V86.0078H119.554ZM132.012 118.439C130.079 118.439 128.35 118.139 126.827 117.539C125.303 116.923 124.014 116.081 122.959 115.012C121.919 113.942 121.121 112.712 120.564 111.32C120.022 109.929 119.751 108.457 119.751 106.904V106.069C119.751 104.326 119.993 102.714 120.477 101.235C120.96 99.7407 121.678 98.437 122.63 97.3237C123.582 96.2104 124.776 95.3462 126.211 94.731C127.647 94.1011 129.317 93.7861 131.221 93.7861C132.906 93.7861 134.415 94.0571 135.748 94.5991C137.081 95.1411 138.208 95.9175 139.131 96.9282C140.069 97.939 140.779 99.1621 141.263 100.598C141.761 102.033 142.01 103.645 142.01 105.432V108.442H122.586V103.806H134.781V103.234C134.795 102.443 134.656 101.77 134.363 101.213C134.085 100.656 133.675 100.231 133.133 99.9385C132.591 99.6455 131.932 99.499 131.155 99.499C130.35 99.499 129.683 99.6748 129.156 100.026C128.643 100.378 128.24 100.861 127.947 101.477C127.669 102.077 127.471 102.773 127.354 103.564C127.237 104.355 127.178 105.19 127.178 106.069V106.904C127.178 107.783 127.295 108.581 127.53 109.299C127.779 110.017 128.13 110.632 128.584 111.145C129.053 111.643 129.61 112.031 130.254 112.309C130.914 112.587 131.661 112.727 132.496 112.727C133.506 112.727 134.502 112.536 135.484 112.155C136.465 111.774 137.308 111.145 138.011 110.266L141.373 114.265C140.889 114.953 140.201 115.62 139.307 116.264C138.428 116.909 137.374 117.436 136.143 117.846C134.913 118.242 133.536 118.439 132.012 118.439ZM155.062 112.727C155.75 112.727 156.336 112.602 156.819 112.353C157.317 112.089 157.691 111.723 157.94 111.254C158.204 110.771 158.328 110.192 158.313 109.519H165.279C165.293 111.306 164.854 112.873 163.96 114.221C163.082 115.554 161.88 116.594 160.357 117.341C158.848 118.073 157.142 118.439 155.237 118.439C153.377 118.439 151.751 118.139 150.359 117.539C148.968 116.923 147.803 116.074 146.866 114.99C145.943 113.891 145.247 112.609 144.778 111.145C144.324 109.68 144.097 108.09 144.097 106.376V105.871C144.097 104.157 144.324 102.568 144.778 101.103C145.247 99.6235 145.943 98.3418 146.866 97.2578C147.803 96.1592 148.96 95.3096 150.337 94.709C151.729 94.0938 153.348 93.7861 155.193 93.7861C157.171 93.7861 158.914 94.1597 160.423 94.9067C161.946 95.6538 163.14 96.7378 164.004 98.1587C164.869 99.5796 165.293 101.301 165.279 103.322H158.313C158.328 102.604 158.218 101.96 157.984 101.389C157.75 100.817 157.383 100.363 156.885 100.026C156.402 99.6748 155.779 99.499 155.018 99.499C154.256 99.499 153.641 99.6675 153.172 100.004C152.703 100.341 152.344 100.81 152.095 101.411C151.861 101.997 151.7 102.67 151.612 103.432C151.539 104.194 151.502 105.007 151.502 105.871V106.376C151.502 107.255 151.539 108.083 151.612 108.859C151.7 109.621 151.868 110.295 152.117 110.881C152.366 111.452 152.725 111.906 153.194 112.243C153.663 112.565 154.285 112.727 155.062 112.727ZM175.694 84.25V118H168.289V84.25H175.694ZM174.815 105.3L173.079 105.344C173.079 103.674 173.284 102.136 173.694 100.729C174.104 99.3232 174.69 98.1001 175.452 97.0601C176.214 96.02 177.129 95.2144 178.199 94.6431C179.268 94.0718 180.455 93.7861 181.758 93.7861C182.93 93.7861 184 93.9546 184.966 94.2915C185.948 94.6284 186.79 95.1704 187.493 95.9175C188.211 96.6646 188.76 97.6387 189.141 98.8398C189.537 100.041 189.734 101.506 189.734 103.234V118H182.286V103.19C182.286 102.224 182.146 101.477 181.868 100.949C181.604 100.407 181.224 100.034 180.726 99.8286C180.228 99.6089 179.62 99.499 178.902 99.499C178.038 99.499 177.334 99.6455 176.792 99.9385C176.25 100.231 175.833 100.642 175.54 101.169C175.262 101.682 175.071 102.29 174.969 102.993C174.866 103.696 174.815 104.465 174.815 105.3ZM221.88 109.497C221.88 108.999 221.807 108.552 221.661 108.156C221.514 107.746 221.243 107.365 220.848 107.014C220.452 106.662 219.881 106.311 219.134 105.959C218.401 105.593 217.435 105.212 216.233 104.816C214.827 104.348 213.472 103.82 212.168 103.234C210.865 102.634 209.7 101.938 208.675 101.147C207.649 100.341 206.836 99.4038 206.236 98.3345C205.635 97.2505 205.335 95.9907 205.335 94.5552C205.335 93.1782 205.643 91.9404 206.258 90.8418C206.873 89.7285 207.73 88.7837 208.829 88.0073C209.942 87.2163 211.246 86.6157 212.74 86.2056C214.234 85.7808 215.867 85.5684 217.64 85.5684C219.983 85.5684 222.049 85.9785 223.836 86.7988C225.638 87.6045 227.044 88.7544 228.055 90.2485C229.08 91.728 229.593 93.4785 229.593 95.5H221.924C221.924 94.6943 221.756 93.9839 221.419 93.3687C221.097 92.7534 220.606 92.27 219.947 91.9185C219.288 91.5669 218.46 91.3911 217.464 91.3911C216.497 91.3911 215.684 91.5376 215.025 91.8306C214.366 92.1235 213.868 92.519 213.531 93.0171C213.194 93.5005 213.025 94.0352 213.025 94.6211C213.025 95.1045 213.157 95.5439 213.421 95.9395C213.699 96.3203 214.087 96.6792 214.585 97.0161C215.098 97.353 215.713 97.6753 216.431 97.9829C217.164 98.2905 217.984 98.5908 218.892 98.8838C220.591 99.4258 222.1 100.034 223.418 100.708C224.751 101.367 225.872 102.121 226.78 102.971C227.703 103.806 228.399 104.758 228.868 105.827C229.351 106.896 229.593 108.105 229.593 109.453C229.593 110.888 229.314 112.163 228.758 113.276C228.201 114.389 227.403 115.334 226.363 116.11C225.323 116.872 224.078 117.451 222.627 117.846C221.177 118.242 219.559 118.439 217.771 118.439C216.131 118.439 214.512 118.234 212.916 117.824C211.333 117.399 209.898 116.755 208.609 115.891C207.32 115.012 206.287 113.891 205.511 112.529C204.749 111.152 204.368 109.519 204.368 107.629H212.103C212.103 108.566 212.227 109.357 212.476 110.002C212.725 110.646 213.091 111.167 213.575 111.562C214.058 111.943 214.651 112.221 215.354 112.397C216.058 112.558 216.863 112.639 217.771 112.639C218.753 112.639 219.544 112.5 220.145 112.221C220.745 111.928 221.185 111.547 221.463 111.079C221.741 110.595 221.88 110.068 221.88 109.497ZM245.743 94.2256V99.3672H231.417V94.2256H245.743ZM234.427 88.3149H241.832V110.244C241.832 110.874 241.905 111.364 242.051 111.716C242.198 112.053 242.447 112.294 242.798 112.441C243.165 112.573 243.648 112.639 244.249 112.639C244.673 112.639 245.025 112.631 245.303 112.617C245.582 112.587 245.845 112.551 246.094 112.507V117.802C245.464 118.007 244.805 118.161 244.117 118.264C243.428 118.381 242.696 118.439 241.919 118.439C240.337 118.439 238.982 118.19 237.854 117.692C236.741 117.194 235.892 116.411 235.306 115.341C234.72 114.272 234.427 112.88 234.427 111.167V88.3149ZM261.036 112.023V102.224C261.036 101.55 260.94 100.971 260.75 100.488C260.56 100.004 260.259 99.6309 259.849 99.3672C259.439 99.0889 258.89 98.9497 258.201 98.9497C257.645 98.9497 257.168 99.0449 256.773 99.2354C256.377 99.4258 256.077 99.7114 255.872 100.092C255.667 100.473 255.564 100.957 255.564 101.542H248.16C248.16 100.444 248.401 99.4258 248.885 98.4883C249.383 97.5361 250.086 96.7085 250.994 96.0054C251.917 95.3022 253.016 94.7603 254.29 94.3794C255.579 93.9839 257.015 93.7861 258.597 93.7861C260.486 93.7861 262.171 94.1011 263.65 94.731C265.145 95.3608 266.324 96.3057 267.188 97.5654C268.052 98.8105 268.484 100.378 268.484 102.268V112.001C268.484 113.554 268.572 114.733 268.748 115.539C268.924 116.33 269.173 117.026 269.495 117.626V118H262.068C261.717 117.268 261.453 116.374 261.277 115.319C261.116 114.25 261.036 113.151 261.036 112.023ZM261.937 103.476L261.98 107.431H258.707C258.018 107.431 257.432 107.526 256.949 107.717C256.48 107.907 256.099 108.171 255.806 108.508C255.528 108.83 255.323 109.196 255.191 109.606C255.074 110.017 255.015 110.449 255.015 110.903C255.015 111.342 255.118 111.738 255.323 112.089C255.542 112.426 255.835 112.69 256.202 112.88C256.568 113.071 256.978 113.166 257.432 113.166C258.252 113.166 258.948 113.012 259.52 112.705C260.105 112.382 260.552 111.994 260.86 111.54C261.167 111.086 261.321 110.661 261.321 110.266L262.947 113.298C262.654 113.884 262.317 114.477 261.937 115.078C261.57 115.678 261.109 116.235 260.552 116.748C260.01 117.246 259.344 117.656 258.553 117.978C257.762 118.286 256.802 118.439 255.674 118.439C254.209 118.439 252.862 118.139 251.631 117.539C250.416 116.938 249.441 116.103 248.709 115.034C247.977 113.95 247.61 112.705 247.61 111.298C247.61 110.068 247.83 108.969 248.27 108.002C248.724 107.036 249.405 106.215 250.313 105.542C251.221 104.868 252.378 104.355 253.785 104.003C255.191 103.652 256.846 103.476 258.75 103.476H261.937ZM282.635 112.727C283.323 112.727 283.909 112.602 284.393 112.353C284.891 112.089 285.264 111.723 285.513 111.254C285.777 110.771 285.901 110.192 285.887 109.519H292.852C292.867 111.306 292.427 112.873 291.534 114.221C290.655 115.554 289.454 116.594 287.93 117.341C286.421 118.073 284.715 118.439 282.811 118.439C280.95 118.439 279.324 118.139 277.933 117.539C276.541 116.923 275.376 116.074 274.439 114.99C273.516 113.891 272.82 112.609 272.352 111.145C271.897 109.68 271.67 108.09 271.67 106.376V105.871C271.67 104.157 271.897 102.568 272.352 101.103C272.82 99.6235 273.516 98.3418 274.439 97.2578C275.376 96.1592 276.534 95.3096 277.911 94.709C279.302 94.0938 280.921 93.7861 282.767 93.7861C284.744 93.7861 286.487 94.1597 287.996 94.9067C289.52 95.6538 290.713 96.7378 291.578 98.1587C292.442 99.5796 292.867 101.301 292.852 103.322H285.887C285.901 102.604 285.792 101.96 285.557 101.389C285.323 100.817 284.957 100.363 284.458 100.026C283.975 99.6748 283.353 99.499 282.591 99.499C281.829 99.499 281.214 99.6675 280.745 100.004C280.276 100.341 279.917 100.81 279.668 101.411C279.434 101.997 279.273 102.67 279.185 103.432C279.112 104.194 279.075 105.007 279.075 105.871V106.376C279.075 107.255 279.112 108.083 279.185 108.859C279.273 109.621 279.441 110.295 279.69 110.881C279.939 111.452 280.298 111.906 280.767 112.243C281.236 112.565 281.858 112.727 282.635 112.727ZM303.487 84.228V118H296.082V84.228H303.487ZM318.692 94.2256L308.365 106.333L302.959 111.738L299.729 107.036L304.234 101.169L309.815 94.2256H318.692ZM310.76 118L304.41 107.167L309.881 103.278L319.241 118H310.76Z" fill="#424241"/>
<path d="M1363 15C1363 6.71573 1356.28 0 1348 0H1134V167H1348C1356.28 167 1363 160.284 1363 152V15Z" fill="#0A61E1"/>
<path fill-rule="evenodd" clip-rule="evenodd" d="M1218.5 55C1218.37 55 1218.24 55.0527 1218.15 55.1464C1218.05 55.2402 1218 55.3674 1218 55.5V111.5C1218 111.633 1218.05 111.76 1218.15 111.854C1218.24 111.947 1218.37 112 1218.5 112H1278C1278.13 112 1278.26 111.947 1278.35 111.854C1278.45 111.76 1278.5 111.633 1278.5 111.5V66C1278.5 65.8674 1278.45 65.7402 1278.35 65.6464C1278.26 65.5527 1278.13 65.5 1278 65.5H1248.25C1247.36 65.5 1246.52 65.1045 1245.95 64.4206L1238.09 55H1218.5ZM1213.9 50.9038C1215.12 49.6848 1216.78 49 1218.5 49H1239.5C1240.39 49 1241.23 49.3955 1241.8 50.0794L1249.66 59.5H1278C1279.72 59.5 1281.38 60.1848 1282.6 61.4038C1283.82 62.6228 1284.5 64.2761 1284.5 66V111.5C1284.5 113.224 1283.82 114.877 1282.6 116.096C1281.38 117.315 1279.72 118 1278 118H1218.5C1216.78 118 1215.12 117.315 1213.9 116.096C1212.68 114.877 1212 113.224 1212 111.5V55.5C1212 53.7761 1212.68 52.1228 1213.9 50.9038Z" fill="white"/>
<path fill-rule="evenodd" clip-rule="evenodd" d="M1243.72 77.5251C1245.09 78.892 1245.09 81.108 1243.72 82.4749L1237.45 88.75L1243.72 95.0251C1245.09 96.392 1245.09 98.608 1243.72 99.9749C1242.36 101.342 1240.14 101.342 1238.78 99.9749L1230.03 91.2249C1228.66 89.858 1228.66 87.642 1230.03 86.2751L1238.78 77.5251C1240.14 76.1583 1242.36 76.1583 1243.72 77.5251Z" fill="white"/>
<path fill-rule="evenodd" clip-rule="evenodd" d="M1252.03 99.9749C1250.66 98.608 1250.66 96.392 1252.03 95.0251L1258.3 88.75L1252.03 82.4749C1250.66 81.108 1250.66 78.892 1252.03 77.5251C1253.39 76.1583 1255.61 76.1583 1256.97 77.5251L1265.72 86.2751C1267.09 87.642 1267.09 89.858 1265.72 91.2249L1256.97 99.9749C1255.61 101.342 1253.39 101.342 1252.03 99.9749Z" fill="white"/>
</svg>
