<svg width="1363" height="301" viewBox="0 0 1363 301" fill="none" xmlns="http://www.w3.org/2000/svg">
<rect width="1363" height="301" rx="15" fill="#F0F0F0"/>
<path d="M0 15C0 6.71573 6.71573 0 15 0H37V301H15C6.71573 301 0 294.284 0 286V15Z" fill="#0A61E1"/>
<path d="M104.004 140.455L111.792 104.898H116.438L118.963 107.933L110.665 144H105.535L104.004 140.455ZM101.937 104.898L108.516 140.724L106.824 144H100.889L92.5908 104.898H101.937ZM123.233 140.536L129.759 104.898H139.078L130.779 144H124.871L123.233 140.536ZM119.795 104.898L127.771 140.67L126.16 144H121.031L112.544 107.879L115.176 104.898H119.795ZM151.216 102.75V144H142.166V102.75H151.216ZM150.142 128.478L148.021 128.531C148.021 126.49 148.271 124.61 148.772 122.892C149.274 121.173 149.99 119.678 150.921 118.407C151.852 117.136 152.971 116.151 154.278 115.453C155.585 114.754 157.035 114.405 158.628 114.405C160.061 114.405 161.368 114.611 162.549 115.023C163.749 115.435 164.778 116.097 165.638 117.01C166.515 117.923 167.186 119.114 167.652 120.582C168.135 122.05 168.377 123.84 168.377 125.953V144H159.273V125.899C159.273 124.718 159.103 123.805 158.763 123.16C158.44 122.498 157.975 122.041 157.366 121.791C156.757 121.522 156.014 121.388 155.137 121.388C154.081 121.388 153.222 121.567 152.559 121.925C151.897 122.283 151.386 122.784 151.028 123.429C150.688 124.055 150.455 124.798 150.33 125.658C150.205 126.517 150.142 127.457 150.142 128.478ZM187.471 144.537C185.108 144.537 182.995 144.17 181.133 143.436C179.271 142.684 177.696 141.655 176.407 140.348C175.136 139.041 174.16 137.537 173.479 135.836C172.817 134.135 172.486 132.336 172.486 130.438V129.417C172.486 127.287 172.781 125.318 173.372 123.509C173.963 121.683 174.84 120.09 176.004 118.729C177.168 117.368 178.627 116.312 180.381 115.56C182.136 114.79 184.177 114.405 186.504 114.405C188.563 114.405 190.407 114.736 192.037 115.399C193.666 116.061 195.044 117.01 196.172 118.246C197.318 119.481 198.187 120.976 198.777 122.73C199.386 124.485 199.69 126.454 199.69 128.639V132.318H175.95V126.651H190.855V125.953C190.873 124.986 190.703 124.163 190.345 123.482C190.005 122.802 189.503 122.283 188.841 121.925C188.178 121.567 187.373 121.388 186.424 121.388C185.439 121.388 184.625 121.603 183.98 122.032C183.353 122.462 182.861 123.053 182.503 123.805C182.163 124.539 181.921 125.389 181.778 126.356C181.635 127.323 181.563 128.343 181.563 129.417V130.438C181.563 131.512 181.706 132.488 181.993 133.365C182.297 134.243 182.727 134.994 183.282 135.621C183.855 136.23 184.535 136.704 185.323 137.044C186.128 137.385 187.042 137.555 188.062 137.555C189.297 137.555 190.515 137.322 191.714 136.856C192.914 136.391 193.943 135.621 194.803 134.547L198.912 139.435C198.321 140.276 197.479 141.091 196.387 141.878C195.313 142.666 194.024 143.311 192.52 143.812C191.016 144.295 189.333 144.537 187.471 144.537ZM217.442 144.537C215.079 144.537 212.966 144.17 211.104 143.436C209.242 142.684 207.667 141.655 206.377 140.348C205.106 139.041 204.131 137.537 203.45 135.836C202.788 134.135 202.457 132.336 202.457 130.438V129.417C202.457 127.287 202.752 125.318 203.343 123.509C203.934 121.683 204.811 120.09 205.975 118.729C207.138 117.368 208.597 116.312 210.352 115.56C212.107 114.79 214.148 114.405 216.475 114.405C218.534 114.405 220.378 114.736 222.007 115.399C223.637 116.061 225.015 117.01 226.143 118.246C227.289 119.481 228.157 120.976 228.748 122.73C229.357 124.485 229.661 126.454 229.661 128.639V132.318H205.921V126.651H220.826V125.953C220.844 124.986 220.674 124.163 220.315 123.482C219.975 122.802 219.474 122.283 218.812 121.925C218.149 121.567 217.343 121.388 216.395 121.388C215.41 121.388 214.595 121.603 213.951 122.032C213.324 122.462 212.832 123.053 212.474 123.805C212.133 124.539 211.892 125.389 211.749 126.356C211.605 127.323 211.534 128.343 211.534 129.417V130.438C211.534 131.512 211.677 132.488 211.963 133.365C212.268 134.243 212.697 134.994 213.252 135.621C213.825 136.23 214.506 136.704 215.293 137.044C216.099 137.385 217.012 137.555 218.033 137.555C219.268 137.555 220.486 137.322 221.685 136.856C222.885 136.391 223.914 135.621 224.773 134.547L228.882 139.435C228.292 140.276 227.45 141.091 226.358 141.878C225.284 142.666 223.995 143.311 222.491 143.812C220.987 144.295 219.304 144.537 217.442 144.537ZM242.901 102.75V144H233.824V102.75H242.901ZM261.055 129.767V129.203C261.055 127.072 261.36 125.112 261.968 123.321C262.577 121.513 263.472 119.946 264.654 118.622C265.835 117.297 267.295 116.267 269.031 115.533C270.768 114.781 272.773 114.405 275.047 114.405C277.339 114.405 279.353 114.781 281.089 115.533C282.844 116.267 284.312 117.297 285.494 118.622C286.675 119.946 287.57 121.513 288.179 123.321C288.788 125.112 289.092 127.072 289.092 129.203V129.767C289.092 131.879 288.788 133.84 288.179 135.648C287.57 137.438 286.675 139.005 285.494 140.348C284.312 141.673 282.853 142.702 281.116 143.436C279.38 144.17 277.374 144.537 275.101 144.537C272.827 144.537 270.813 144.17 269.058 143.436C267.304 142.702 265.835 141.673 264.654 140.348C263.472 139.005 262.577 137.438 261.968 135.648C261.36 133.84 261.055 131.879 261.055 129.767ZM270.105 129.203V129.767C270.105 130.859 270.186 131.879 270.347 132.828C270.508 133.777 270.777 134.61 271.153 135.326C271.529 136.024 272.039 136.57 272.684 136.964C273.328 137.358 274.134 137.555 275.101 137.555C276.049 137.555 276.837 137.358 277.464 136.964C278.108 136.57 278.619 136.024 278.995 135.326C279.371 134.61 279.639 133.777 279.8 132.828C279.961 131.879 280.042 130.859 280.042 129.767V129.203C280.042 128.146 279.961 127.153 279.8 126.222C279.639 125.273 279.371 124.44 278.995 123.724C278.619 122.99 278.108 122.417 277.464 122.005C276.819 121.594 276.014 121.388 275.047 121.388C274.098 121.388 273.301 121.594 272.657 122.005C272.03 122.417 271.529 122.99 271.153 123.724C270.777 124.44 270.508 125.273 270.347 126.222C270.186 127.153 270.105 128.146 270.105 129.203ZM304.212 144H295.108V112.579C295.108 110.323 295.564 108.425 296.478 106.886C297.391 105.346 298.68 104.182 300.345 103.395C302.01 102.589 303.979 102.186 306.253 102.186C307.041 102.186 307.784 102.24 308.482 102.347C309.18 102.455 309.861 102.589 310.523 102.75L310.55 109.41C310.228 109.321 309.896 109.258 309.556 109.222C309.216 109.186 308.795 109.168 308.294 109.168C307.417 109.168 306.674 109.303 306.065 109.571C305.456 109.822 304.991 110.207 304.668 110.726C304.364 111.227 304.212 111.845 304.212 112.579V144ZM309.852 114.942V121.227H290.918V114.942H309.852ZM353.062 136.749V144H333.296V136.749H353.062ZM336.653 104.898V144H327.227V104.898H336.653ZM366.167 114.942V144H357.09V114.942H366.167ZM356.553 107.45C356.553 106.161 357.019 105.104 357.95 104.281C358.881 103.457 360.089 103.045 361.575 103.045C363.061 103.045 364.27 103.457 365.201 104.281C366.132 105.104 366.597 106.161 366.597 107.45C366.597 108.739 366.132 109.795 365.201 110.619C364.27 111.442 363.061 111.854 361.575 111.854C360.089 111.854 358.881 111.442 357.95 110.619C357.019 109.795 356.553 108.739 356.553 107.45ZM382.845 144H373.741V112.579C373.741 110.323 374.197 108.425 375.11 106.886C376.023 105.346 377.312 104.182 378.978 103.395C380.643 102.589 382.612 102.186 384.886 102.186C385.674 102.186 386.417 102.24 387.115 102.347C387.813 102.455 388.493 102.589 389.156 102.75L389.183 109.41C388.86 109.321 388.529 109.258 388.189 109.222C387.849 109.186 387.428 109.168 386.927 109.168C386.049 109.168 385.306 109.303 384.698 109.571C384.089 109.822 383.624 110.207 383.301 110.726C382.997 111.227 382.845 111.845 382.845 112.579V144ZM388.484 114.942V121.227H369.551V114.942H388.484ZM405.162 144.537C402.798 144.537 400.686 144.17 398.824 143.436C396.962 142.684 395.386 141.655 394.097 140.348C392.826 139.041 391.85 137.537 391.17 135.836C390.507 134.135 390.176 132.336 390.176 130.438V129.417C390.176 127.287 390.472 125.318 391.062 123.509C391.653 121.683 392.531 120.09 393.694 118.729C394.858 117.368 396.317 116.312 398.072 115.56C399.826 114.79 401.867 114.405 404.195 114.405C406.254 114.405 408.098 114.736 409.727 115.399C411.356 116.061 412.735 117.01 413.863 118.246C415.009 119.481 415.877 120.976 416.468 122.73C417.076 124.485 417.381 126.454 417.381 128.639V132.318H393.641V126.651H408.545V125.953C408.563 124.986 408.393 124.163 408.035 123.482C407.695 122.802 407.194 122.283 406.531 121.925C405.869 121.567 405.063 121.388 404.114 121.388C403.13 121.388 402.315 121.603 401.67 122.032C401.044 122.462 400.551 123.053 400.193 123.805C399.853 124.539 399.611 125.389 399.468 126.356C399.325 127.323 399.253 128.343 399.253 129.417V130.438C399.253 131.512 399.397 132.488 399.683 133.365C399.987 134.243 400.417 134.994 400.972 135.621C401.545 136.23 402.225 136.704 403.013 137.044C403.819 137.385 404.732 137.555 405.752 137.555C406.988 137.555 408.205 137.322 409.405 136.856C410.604 136.391 411.634 135.621 412.493 134.547L416.602 139.435C416.011 140.276 415.17 141.091 414.078 141.878C413.003 142.666 411.714 143.311 410.21 143.812C408.707 144.295 407.024 144.537 405.162 144.537Z" fill="black"/>
<path d="M94.2217 55.1172H103.501C105.404 55.1172 107.039 55.402 108.406 55.9717C109.785 56.5413 110.844 57.3844 111.585 58.501C112.326 59.6175 112.696 60.9904 112.696 62.6196C112.696 63.9526 112.468 65.0977 112.012 66.0547C111.568 67.0003 110.936 67.7922 110.115 68.4302C109.306 69.0568 108.355 69.5581 107.261 69.9341L105.638 70.7886H97.5713L97.5371 66.7896H103.536C104.436 66.7896 105.182 66.63 105.774 66.311C106.367 65.992 106.811 65.5477 107.107 64.978C107.415 64.4084 107.569 63.7476 107.569 62.9956C107.569 62.1981 107.421 61.5088 107.125 60.9277C106.828 60.3467 106.378 59.9023 105.774 59.5947C105.171 59.2871 104.413 59.1333 103.501 59.1333H99.3486V80H94.2217V55.1172ZM108.133 80L102.459 68.9087L107.876 68.8745L113.619 79.7607V80H108.133ZM126.316 75.8301V67.5928C126.316 67.0003 126.22 66.4933 126.026 66.0718C125.832 65.6388 125.53 65.3027 125.12 65.0635C124.721 64.8242 124.203 64.7046 123.565 64.7046C123.018 64.7046 122.545 64.8014 122.146 64.9951C121.748 65.1774 121.44 65.4451 121.224 65.7983C121.007 66.1401 120.899 66.5446 120.899 67.0117H115.977C115.977 66.2256 116.159 65.4793 116.524 64.7729C116.889 64.0666 117.418 63.4456 118.113 62.9102C118.808 62.3633 119.634 61.936 120.591 61.6284C121.56 61.3208 122.642 61.167 123.838 61.167C125.274 61.167 126.55 61.4062 127.667 61.8848C128.783 62.3633 129.66 63.0811 130.298 64.0381C130.948 64.9951 131.272 66.1914 131.272 67.627V75.5396C131.272 76.5535 131.335 77.3853 131.46 78.0347C131.586 78.6727 131.768 79.231 132.007 79.7095V80H127.034C126.795 79.4987 126.613 78.8721 126.487 78.1201C126.373 77.3568 126.316 76.5934 126.316 75.8301ZM126.966 68.7378L127 71.5234H124.249C123.599 71.5234 123.035 71.5975 122.557 71.7456C122.078 71.8937 121.685 72.1045 121.377 72.3779C121.07 72.64 120.842 72.9476 120.694 73.3008C120.557 73.654 120.489 74.0413 120.489 74.4629C120.489 74.8844 120.586 75.2661 120.779 75.6079C120.973 75.9383 121.252 76.2004 121.617 76.394C121.981 76.5763 122.409 76.6675 122.898 76.6675C123.639 76.6675 124.283 76.5194 124.83 76.2231C125.376 75.9269 125.798 75.5623 126.094 75.1294C126.402 74.6965 126.561 74.2863 126.573 73.8989L127.872 75.9839C127.689 76.451 127.439 76.9352 127.12 77.4365C126.812 77.9378 126.419 78.4106 125.94 78.855C125.462 79.2879 124.887 79.6468 124.214 79.9316C123.542 80.2051 122.745 80.3418 121.822 80.3418C120.648 80.3418 119.583 80.1082 118.626 79.6411C117.68 79.1626 116.928 78.5075 116.37 77.6758C115.823 76.8327 115.55 75.8757 115.55 74.8047C115.55 73.8363 115.732 72.9761 116.097 72.2241C116.461 71.4722 116.997 70.8398 117.703 70.3271C118.421 69.8031 119.315 69.41 120.386 69.1479C121.457 68.8745 122.699 68.7378 124.112 68.7378H126.966ZM139.988 65.3369V80H135.049V61.5088H139.681L139.988 65.3369ZM139.305 70.105H137.938C137.938 68.8175 138.091 67.6326 138.399 66.5503C138.718 65.4565 139.179 64.5109 139.783 63.7134C140.398 62.9045 141.156 62.2778 142.056 61.8335C142.956 61.3892 143.999 61.167 145.184 61.167C146.004 61.167 146.756 61.2923 147.439 61.543C148.123 61.7822 148.71 62.1639 149.2 62.688C149.701 63.2007 150.088 63.8729 150.362 64.7046C150.635 65.5249 150.772 66.5104 150.772 67.6611V80H145.85V68.208C145.85 67.3649 145.736 66.7155 145.508 66.2598C145.28 65.804 144.956 65.485 144.534 65.3027C144.124 65.1204 143.628 65.0293 143.047 65.0293C142.409 65.0293 141.851 65.1603 141.373 65.4224C140.905 65.6844 140.518 66.049 140.21 66.5161C139.903 66.9718 139.675 67.5073 139.527 68.1226C139.379 68.7378 139.305 69.3986 139.305 70.105ZM150.311 69.541L148.55 69.7632C148.55 68.5555 148.698 67.4333 148.995 66.3965C149.302 65.3597 149.752 64.4482 150.345 63.6621C150.949 62.876 151.695 62.2664 152.583 61.8335C153.472 61.3892 154.498 61.167 155.66 61.167C156.548 61.167 157.357 61.298 158.086 61.5601C158.816 61.8107 159.437 62.2152 159.949 62.7734C160.473 63.3203 160.872 64.0381 161.146 64.9268C161.43 65.8154 161.573 66.9035 161.573 68.1909V80H156.634V68.1909C156.634 67.3364 156.52 66.687 156.292 66.2427C156.076 65.7869 155.757 65.4736 155.335 65.3027C154.925 65.1204 154.435 65.0293 153.865 65.0293C153.273 65.0293 152.754 65.1489 152.31 65.3882C151.866 65.616 151.495 65.9351 151.199 66.3452C150.903 66.7554 150.681 67.2339 150.533 67.7808C150.385 68.3162 150.311 68.903 150.311 69.541ZM180.098 76.1548V80H166.05V76.1548H180.098ZM179.825 64.3457L168.033 80H164.734V77.0776L176.475 61.5088H179.825V64.3457ZM178.082 61.5088V65.3711H165.008V61.5088H178.082ZM188.387 61.5088V80H183.448V61.5088H188.387ZM183.14 56.6895C183.14 55.9717 183.391 55.3792 183.892 54.9121C184.393 54.445 185.066 54.2114 185.909 54.2114C186.74 54.2114 187.407 54.445 187.908 54.9121C188.421 55.3792 188.677 55.9717 188.677 56.6895C188.677 57.4072 188.421 57.9997 187.908 58.4668C187.407 58.9339 186.74 59.1675 185.909 59.1675C185.066 59.1675 184.393 58.9339 183.892 58.4668C183.391 57.9997 183.14 57.4072 183.14 56.6895ZM218.174 76.001V80H204.93V76.001H218.174ZM206.604 55.1172V80H201.478V55.1172H206.604ZM216.448 65.2515V69.1479H204.93V65.2515H216.448ZM218.157 55.1172V59.1333H204.93V55.1172H218.157ZM226.053 53.75V80H221.114V53.75H226.053ZM249.261 59.3726L242.493 80H237.042L246.287 55.1172H249.756L249.261 59.3726ZM254.883 80L248.099 59.3726L247.552 55.1172H251.055L260.352 80H254.883ZM254.576 70.7373V74.7534H241.434V70.7373H254.576ZM272.349 74.8901C272.349 74.5369 272.247 74.2179 272.042 73.9331C271.836 73.6483 271.455 73.3862 270.896 73.147C270.35 72.8963 269.558 72.6685 268.521 72.4634C267.587 72.2583 266.715 72.002 265.906 71.6943C265.109 71.3753 264.414 70.9937 263.821 70.5493C263.24 70.105 262.785 69.5809 262.454 68.9771C262.124 68.3618 261.958 67.6611 261.958 66.875C261.958 66.1003 262.124 65.3711 262.454 64.6875C262.796 64.0039 263.28 63.4001 263.907 62.876C264.545 62.3405 265.319 61.9246 266.231 61.6284C267.154 61.3208 268.191 61.167 269.341 61.167C270.948 61.167 272.326 61.4233 273.477 61.936C274.639 62.4487 275.528 63.1551 276.143 64.0552C276.77 64.9438 277.083 65.9578 277.083 67.0972H272.161C272.161 66.6187 272.059 66.1914 271.854 65.8154C271.66 65.4281 271.352 65.1261 270.931 64.9097C270.521 64.6818 269.985 64.5679 269.324 64.5679C268.777 64.5679 268.305 64.6647 267.906 64.8584C267.507 65.0407 267.199 65.2913 266.983 65.6104C266.778 65.918 266.675 66.2598 266.675 66.6357C266.675 66.9206 266.732 67.1769 266.846 67.4048C266.972 67.6213 267.171 67.8206 267.444 68.0029C267.718 68.1852 268.071 68.3561 268.504 68.5156C268.948 68.6637 269.495 68.8005 270.145 68.9258C271.478 69.1992 272.668 69.5581 273.716 70.0024C274.764 70.4354 275.596 71.0278 276.211 71.7798C276.827 72.5203 277.134 73.4945 277.134 74.7021C277.134 75.5225 276.952 76.2744 276.587 76.958C276.223 77.6416 275.699 78.2397 275.015 78.7524C274.332 79.2537 273.511 79.6468 272.554 79.9316C271.609 80.2051 270.543 80.3418 269.358 80.3418C267.638 80.3418 266.18 80.0342 264.983 79.4189C263.799 78.8037 262.898 78.0233 262.283 77.0776C261.679 76.1206 261.377 75.1408 261.377 74.1382H266.043C266.066 74.8104 266.237 75.3516 266.556 75.7617C266.886 76.1719 267.302 76.4681 267.803 76.6504C268.316 76.8327 268.868 76.9238 269.461 76.9238C270.099 76.9238 270.629 76.8384 271.05 76.6675C271.472 76.4852 271.791 76.2459 272.007 75.9497C272.235 75.6421 272.349 75.2889 272.349 74.8901ZM285.132 53.75V80H280.21V53.75H285.132ZM284.432 70.105H283.082C283.093 68.8175 283.264 67.6326 283.594 66.5503C283.925 65.4565 284.397 64.5109 285.013 63.7134C285.628 62.9045 286.363 62.2778 287.217 61.8335C288.083 61.3892 289.04 61.167 290.088 61.167C291 61.167 291.826 61.298 292.566 61.5601C293.318 61.8107 293.962 62.2209 294.498 62.7905C295.044 63.3488 295.466 64.0837 295.762 64.9951C296.058 65.9066 296.207 67.0117 296.207 68.3105V80H291.25V68.2764C291.25 67.4561 291.131 66.8123 290.892 66.3452C290.664 65.8667 290.328 65.5306 289.883 65.3369C289.45 65.1318 288.915 65.0293 288.277 65.0293C287.57 65.0293 286.967 65.1603 286.465 65.4224C285.975 65.6844 285.582 66.049 285.286 66.5161C284.99 66.9718 284.773 67.5073 284.637 68.1226C284.5 68.7378 284.432 69.3986 284.432 70.105ZM304.871 53.7329V80H299.949V53.7329H304.871ZM316.526 61.5088L308.494 70.6689L304.188 75.0269L302.393 71.4722L305.811 67.1313L310.613 61.5088H316.526ZM311.417 80L305.948 71.4551L309.349 68.4814L317.09 80H311.417ZM328.626 75.8301V67.5928C328.626 67.0003 328.529 66.4933 328.335 66.0718C328.142 65.6388 327.84 65.3027 327.43 65.0635C327.031 64.8242 326.513 64.7046 325.875 64.7046C325.328 64.7046 324.855 64.8014 324.456 64.9951C324.057 65.1774 323.75 65.4451 323.533 65.7983C323.317 66.1401 323.208 66.5446 323.208 67.0117H318.287C318.287 66.2256 318.469 65.4793 318.833 64.7729C319.198 64.0666 319.728 63.4456 320.423 62.9102C321.118 62.3633 321.944 61.936 322.901 61.6284C323.869 61.3208 324.952 61.167 326.148 61.167C327.583 61.167 328.86 61.4062 329.976 61.8848C331.093 62.3633 331.97 63.0811 332.608 64.0381C333.257 64.9951 333.582 66.1914 333.582 67.627V75.5396C333.582 76.5535 333.645 77.3853 333.77 78.0347C333.895 78.6727 334.078 79.231 334.317 79.7095V80H329.344C329.104 79.4987 328.922 78.8721 328.797 78.1201C328.683 77.3568 328.626 76.5934 328.626 75.8301ZM329.275 68.7378L329.31 71.5234H326.558C325.909 71.5234 325.345 71.5975 324.866 71.7456C324.388 71.8937 323.995 72.1045 323.687 72.3779C323.379 72.64 323.152 72.9476 323.003 73.3008C322.867 73.654 322.798 74.0413 322.798 74.4629C322.798 74.8844 322.895 75.2661 323.089 75.6079C323.283 75.9383 323.562 76.2004 323.926 76.394C324.291 76.5763 324.718 76.6675 325.208 76.6675C325.949 76.6675 326.592 76.5194 327.139 76.2231C327.686 75.9269 328.108 75.5623 328.404 75.1294C328.711 74.6965 328.871 74.2863 328.882 73.8989L330.181 75.9839C329.999 76.451 329.748 76.9352 329.429 77.4365C329.122 77.9378 328.729 78.4106 328.25 78.855C327.771 79.2879 327.196 79.6468 326.524 79.9316C325.852 80.2051 325.054 80.3418 324.131 80.3418C322.958 80.3418 321.893 80.1082 320.936 79.6411C319.99 79.1626 319.238 78.5075 318.68 77.6758C318.133 76.8327 317.859 75.8757 317.859 74.8047C317.859 73.8363 318.042 72.9761 318.406 72.2241C318.771 71.4722 319.306 70.8398 320.013 70.3271C320.73 69.8031 321.625 69.41 322.696 69.1479C323.767 68.8745 325.009 68.7378 326.421 68.7378H329.275ZM342.298 65.542V80H337.376V61.5088H342.007L342.298 65.542ZM347.869 61.3892L347.784 65.9521C347.544 65.918 347.254 65.8895 346.912 65.8667C346.582 65.8325 346.28 65.8154 346.006 65.8154C345.311 65.8154 344.708 65.9066 344.195 66.0889C343.694 66.2598 343.272 66.5161 342.93 66.8579C342.6 67.1997 342.349 67.6156 342.178 68.1055C342.019 68.5954 341.928 69.1536 341.905 69.7803L340.914 69.4727C340.914 68.2764 341.033 67.1769 341.272 66.1743C341.512 65.1603 341.859 64.2773 342.315 63.5254C342.782 62.7734 343.352 62.1924 344.024 61.7822C344.696 61.3721 345.465 61.167 346.331 61.167C346.604 61.167 346.884 61.1898 347.168 61.2354C347.453 61.2695 347.687 61.3208 347.869 61.3892Z" fill="#888888"/>
<rect x="92" y="181" width="1179" height="80" rx="13.3333" fill="#CCCCCC"/>
<rect x="107" y="196.333" width="208" height="49.3333" rx="4.66667" fill="#888888" stroke="#888888" stroke-width="4"/>
<path d="M171.823 213.167H177.792C178.958 213.167 179.972 213.34 180.833 213.687C181.694 214.035 182.358 214.549 182.823 215.229C183.295 215.91 183.531 216.75 183.531 217.75C183.531 218.618 183.396 219.344 183.125 219.927C182.854 220.51 182.476 220.993 181.99 221.375C181.51 221.75 180.951 222.059 180.312 222.302L179.115 222.979H174.104L174.083 220.156H177.792C178.257 220.156 178.642 220.073 178.948 219.906C179.253 219.74 179.483 219.503 179.635 219.198C179.795 218.885 179.875 218.514 179.875 218.083C179.875 217.646 179.795 217.271 179.635 216.958C179.476 216.646 179.24 216.406 178.927 216.24C178.622 216.073 178.243 215.99 177.792 215.99H175.479V228.333H171.823V213.167ZM180.125 228.333L176.771 221.625L180.646 221.604L184.042 228.177V228.333H180.125ZM191.031 228.542C190.115 228.542 189.295 228.399 188.573 228.115C187.851 227.823 187.24 227.424 186.74 226.917C186.247 226.41 185.868 225.826 185.604 225.167C185.347 224.507 185.219 223.809 185.219 223.073V222.677C185.219 221.851 185.333 221.087 185.562 220.385C185.792 219.677 186.132 219.059 186.583 218.531C187.035 218.003 187.601 217.594 188.281 217.302C188.962 217.003 189.753 216.854 190.656 216.854C191.455 216.854 192.17 216.983 192.802 217.24C193.434 217.497 193.969 217.865 194.406 218.344C194.851 218.823 195.187 219.403 195.417 220.083C195.653 220.764 195.771 221.528 195.771 222.375V223.802H186.562V221.604H192.344V221.333C192.351 220.958 192.285 220.639 192.146 220.375C192.014 220.111 191.819 219.91 191.562 219.771C191.306 219.632 190.993 219.562 190.625 219.562C190.243 219.562 189.927 219.646 189.677 219.812C189.434 219.979 189.243 220.208 189.104 220.5C188.972 220.785 188.878 221.115 188.823 221.49C188.767 221.865 188.74 222.26 188.74 222.677V223.073C188.74 223.49 188.795 223.868 188.906 224.208C189.024 224.549 189.191 224.84 189.406 225.083C189.628 225.319 189.892 225.503 190.198 225.635C190.51 225.767 190.865 225.833 191.26 225.833C191.74 225.833 192.212 225.743 192.677 225.562C193.142 225.382 193.542 225.083 193.875 224.667L195.469 226.562C195.24 226.889 194.913 227.205 194.49 227.51C194.073 227.816 193.573 228.066 192.99 228.26C192.406 228.448 191.753 228.542 191.031 228.542ZM203.052 225.5V220.854C203.052 220.535 203.007 220.26 202.917 220.031C202.826 219.802 202.684 219.625 202.49 219.5C202.295 219.368 202.035 219.302 201.708 219.302C201.444 219.302 201.219 219.347 201.031 219.437C200.844 219.528 200.701 219.663 200.604 219.844C200.507 220.024 200.458 220.253 200.458 220.531H196.948C196.948 220.01 197.062 219.528 197.292 219.083C197.528 218.632 197.861 218.24 198.292 217.906C198.729 217.573 199.25 217.316 199.854 217.135C200.465 216.948 201.146 216.854 201.896 216.854C202.792 216.854 203.59 217.003 204.292 217.302C205 217.601 205.559 218.049 205.969 218.646C206.378 219.236 206.583 219.979 206.583 220.875V225.49C206.583 226.226 206.625 226.785 206.708 227.167C206.792 227.542 206.91 227.872 207.062 228.156V228.333H203.542C203.375 227.986 203.25 227.562 203.167 227.062C203.09 226.556 203.052 226.035 203.052 225.5ZM203.479 221.448L203.5 223.323H201.948C201.622 223.323 201.344 223.368 201.115 223.458C200.892 223.549 200.712 223.674 200.573 223.833C200.441 223.986 200.344 224.16 200.281 224.354C200.226 224.549 200.198 224.753 200.198 224.969C200.198 225.177 200.247 225.365 200.344 225.531C200.448 225.691 200.587 225.816 200.76 225.906C200.934 225.997 201.128 226.042 201.344 226.042C201.733 226.042 202.062 225.969 202.333 225.823C202.611 225.67 202.823 225.486 202.969 225.271C203.115 225.056 203.187 224.854 203.187 224.667L203.958 226.104C203.819 226.382 203.66 226.663 203.479 226.948C203.306 227.233 203.087 227.497 202.823 227.74C202.566 227.976 202.25 228.17 201.875 228.323C201.5 228.469 201.045 228.542 200.51 228.542C199.816 228.542 199.177 228.399 198.594 228.115C198.017 227.83 197.556 227.434 197.208 226.927C196.861 226.413 196.687 225.823 196.687 225.156C196.687 224.573 196.792 224.052 197 223.594C197.215 223.135 197.538 222.747 197.969 222.427C198.399 222.108 198.948 221.865 199.615 221.698C200.281 221.531 201.066 221.448 201.969 221.448H203.479ZM213.292 225.833C213.618 225.833 213.896 225.774 214.125 225.656C214.361 225.531 214.538 225.358 214.656 225.135C214.781 224.906 214.84 224.632 214.833 224.312H218.135C218.142 225.16 217.934 225.903 217.51 226.542C217.094 227.174 216.524 227.667 215.802 228.021C215.087 228.368 214.278 228.542 213.375 228.542C212.493 228.542 211.722 228.399 211.062 228.115C210.403 227.823 209.851 227.42 209.406 226.906C208.969 226.385 208.639 225.778 208.417 225.083C208.201 224.389 208.094 223.635 208.094 222.823V222.583C208.094 221.771 208.201 221.017 208.417 220.323C208.639 219.622 208.969 219.014 209.406 218.5C209.851 217.979 210.399 217.576 211.052 217.292C211.712 217 212.479 216.854 213.354 216.854C214.292 216.854 215.118 217.031 215.833 217.385C216.556 217.74 217.122 218.253 217.531 218.927C217.941 219.601 218.142 220.417 218.135 221.375H214.833C214.84 221.035 214.788 220.729 214.677 220.458C214.566 220.187 214.392 219.972 214.156 219.812C213.927 219.646 213.632 219.562 213.271 219.562C212.91 219.562 212.618 219.642 212.396 219.802C212.174 219.962 212.003 220.184 211.885 220.469C211.774 220.747 211.698 221.066 211.656 221.427C211.622 221.788 211.604 222.174 211.604 222.583V222.823C211.604 223.24 211.622 223.632 211.656 224C211.698 224.361 211.778 224.681 211.896 224.958C212.014 225.229 212.184 225.444 212.406 225.604C212.628 225.757 212.924 225.833 213.292 225.833ZM225.573 217.062V219.5H218.781V217.062H225.573ZM220.208 214.26H223.719V224.656C223.719 224.955 223.753 225.187 223.823 225.354C223.892 225.514 224.01 225.628 224.177 225.698C224.351 225.76 224.58 225.792 224.865 225.792C225.066 225.792 225.233 225.788 225.365 225.781C225.497 225.767 225.622 225.75 225.74 225.729V228.24C225.441 228.337 225.128 228.41 224.802 228.458C224.476 228.514 224.128 228.542 223.76 228.542C223.01 228.542 222.368 228.424 221.833 228.187C221.306 227.951 220.903 227.58 220.625 227.073C220.347 226.566 220.208 225.906 220.208 225.094V214.26ZM233.167 223.573V213.167H236.812V223.573C236.812 224.587 236.58 225.465 236.115 226.208C235.656 226.951 235.031 227.528 234.24 227.937C233.455 228.34 232.573 228.542 231.594 228.542C230.58 228.542 229.677 228.372 228.885 228.031C228.101 227.691 227.483 227.167 227.031 226.458C226.587 225.75 226.365 224.847 226.365 223.75H230.031C230.031 224.264 230.09 224.667 230.208 224.958C230.326 225.243 230.5 225.444 230.729 225.562C230.965 225.674 231.253 225.729 231.594 225.729C231.927 225.729 232.208 225.646 232.437 225.479C232.674 225.306 232.854 225.059 232.979 224.74C233.104 224.413 233.167 224.024 233.167 223.573ZM246.948 224.302C246.948 224.066 246.913 223.854 246.844 223.667C246.774 223.472 246.646 223.292 246.458 223.125C246.271 222.958 246 222.792 245.646 222.625C245.299 222.451 244.84 222.271 244.271 222.083C243.604 221.861 242.962 221.611 242.344 221.333C241.726 221.049 241.174 220.719 240.687 220.344C240.201 219.962 239.816 219.517 239.531 219.01C239.247 218.497 239.104 217.899 239.104 217.219C239.104 216.566 239.25 215.979 239.542 215.458C239.833 214.931 240.24 214.483 240.76 214.115C241.288 213.74 241.906 213.455 242.615 213.26C243.323 213.059 244.097 212.958 244.937 212.958C246.049 212.958 247.028 213.153 247.875 213.542C248.729 213.924 249.396 214.469 249.875 215.177C250.361 215.878 250.604 216.708 250.604 217.667H246.969C246.969 217.285 246.889 216.948 246.729 216.656C246.576 216.365 246.344 216.135 246.031 215.969C245.719 215.802 245.326 215.719 244.854 215.719C244.396 215.719 244.01 215.788 243.698 215.927C243.385 216.066 243.149 216.253 242.99 216.49C242.83 216.719 242.75 216.972 242.75 217.25C242.75 217.479 242.812 217.687 242.937 217.875C243.069 218.056 243.253 218.226 243.49 218.385C243.733 218.545 244.024 218.698 244.365 218.844C244.712 218.99 245.101 219.132 245.531 219.271C246.337 219.528 247.052 219.816 247.677 220.135C248.309 220.448 248.84 220.806 249.271 221.208C249.708 221.604 250.038 222.056 250.26 222.562C250.49 223.069 250.604 223.642 250.604 224.281C250.604 224.962 250.472 225.566 250.208 226.094C249.944 226.622 249.566 227.069 249.073 227.437C248.58 227.799 247.99 228.073 247.302 228.26C246.615 228.448 245.847 228.542 245 228.542C244.222 228.542 243.455 228.444 242.698 228.25C241.948 228.049 241.267 227.743 240.656 227.333C240.045 226.917 239.556 226.385 239.187 225.74C238.826 225.087 238.646 224.312 238.646 223.417H242.312C242.312 223.861 242.372 224.236 242.49 224.542C242.608 224.847 242.781 225.094 243.01 225.281C243.24 225.462 243.521 225.594 243.854 225.677C244.187 225.753 244.569 225.792 245 225.792C245.465 225.792 245.84 225.726 246.125 225.594C246.41 225.455 246.618 225.274 246.75 225.052C246.882 224.823 246.948 224.573 246.948 224.302Z" fill="white"/>
<rect x="339" y="196.333" width="208" height="49.3333" rx="4.66667" fill="#888888" stroke="#888888" stroke-width="4"/>
<path d="M418.844 213.167V228.333H415.198L409.833 218.896V228.333H406.177V213.167H409.833L415.198 222.604V213.167H418.844ZM420.552 222.812V222.594C420.552 221.767 420.67 221.007 420.906 220.312C421.142 219.611 421.49 219.003 421.948 218.49C422.406 217.976 422.972 217.576 423.646 217.292C424.319 217 425.097 216.854 425.979 216.854C426.868 216.854 427.649 217 428.323 217.292C429.003 217.576 429.573 217.976 430.031 218.49C430.49 219.003 430.837 219.611 431.073 220.312C431.309 221.007 431.427 221.767 431.427 222.594V222.812C431.427 223.632 431.309 224.392 431.073 225.094C430.837 225.788 430.49 226.396 430.031 226.917C429.573 227.431 429.007 227.83 428.333 228.115C427.66 228.399 426.882 228.542 426 228.542C425.118 228.542 424.337 228.399 423.656 228.115C422.976 227.83 422.406 227.431 421.948 226.917C421.49 226.396 421.142 225.788 420.906 225.094C420.67 224.392 420.552 223.632 420.552 222.812ZM424.062 222.594V222.812C424.062 223.236 424.094 223.632 424.156 224C424.219 224.368 424.323 224.691 424.469 224.969C424.615 225.24 424.812 225.451 425.062 225.604C425.312 225.757 425.625 225.833 426 225.833C426.368 225.833 426.674 225.757 426.917 225.604C427.167 225.451 427.365 225.24 427.51 224.969C427.656 224.691 427.76 224.368 427.823 224C427.885 223.632 427.917 223.236 427.917 222.812V222.594C427.917 222.184 427.885 221.799 427.823 221.437C427.76 221.069 427.656 220.747 427.51 220.469C427.365 220.184 427.167 219.962 426.917 219.802C426.667 219.642 426.354 219.562 425.979 219.562C425.611 219.562 425.302 219.642 425.052 219.802C424.809 219.962 424.615 220.184 424.469 220.469C424.323 220.747 424.219 221.069 424.156 221.437C424.094 221.799 424.062 222.184 424.062 222.594ZM439.469 225.75V212.333H443V228.333H439.833L439.469 225.75ZM432.552 222.833V222.615C432.552 221.76 432.646 220.983 432.833 220.281C433.021 219.573 433.299 218.965 433.667 218.458C434.035 217.944 434.493 217.549 435.042 217.271C435.59 216.993 436.222 216.854 436.938 216.854C437.576 216.854 438.135 217.003 438.615 217.302C439.094 217.594 439.503 218.003 439.844 218.531C440.184 219.059 440.462 219.677 440.677 220.385C440.892 221.087 441.056 221.844 441.167 222.656V222.917C441.056 223.681 440.892 224.403 440.677 225.083C440.462 225.757 440.184 226.354 439.844 226.875C439.503 227.396 439.09 227.806 438.604 228.104C438.125 228.396 437.563 228.542 436.917 228.542C436.201 228.542 435.569 228.399 435.021 228.115C434.479 227.83 434.024 227.431 433.656 226.917C433.295 226.403 433.021 225.799 432.833 225.104C432.646 224.41 432.552 223.653 432.552 222.833ZM436.063 222.615V222.833C436.063 223.257 436.09 223.649 436.146 224.01C436.201 224.372 436.295 224.691 436.427 224.969C436.566 225.24 436.747 225.451 436.969 225.604C437.198 225.757 437.479 225.833 437.813 225.833C438.264 225.833 438.635 225.726 438.927 225.51C439.226 225.295 439.444 224.99 439.583 224.594C439.729 224.198 439.792 223.733 439.771 223.198V222.375C439.785 221.917 439.753 221.514 439.677 221.167C439.601 220.812 439.479 220.517 439.313 220.281C439.153 220.045 438.948 219.868 438.698 219.75C438.455 219.625 438.167 219.562 437.833 219.562C437.507 219.562 437.229 219.639 437 219.792C436.778 219.944 436.597 220.16 436.458 220.437C436.319 220.708 436.219 221.031 436.156 221.406C436.094 221.774 436.063 222.177 436.063 222.615ZM450.448 228.542C449.531 228.542 448.712 228.399 447.99 228.115C447.267 227.823 446.656 227.424 446.156 226.917C445.663 226.41 445.285 225.826 445.021 225.167C444.764 224.507 444.635 223.809 444.635 223.073V222.677C444.635 221.851 444.75 221.087 444.979 220.385C445.208 219.677 445.549 219.059 446 218.531C446.451 218.003 447.017 217.594 447.698 217.302C448.378 217.003 449.17 216.854 450.073 216.854C450.872 216.854 451.587 216.983 452.219 217.24C452.851 217.497 453.385 217.865 453.823 218.344C454.267 218.823 454.604 219.403 454.833 220.083C455.069 220.764 455.188 221.528 455.188 222.375V223.802H445.979V221.604H451.76V221.333C451.767 220.958 451.701 220.639 451.563 220.375C451.431 220.111 451.236 219.91 450.979 219.771C450.722 219.632 450.41 219.562 450.042 219.562C449.66 219.562 449.344 219.646 449.094 219.812C448.851 219.979 448.66 220.208 448.521 220.5C448.389 220.785 448.295 221.115 448.24 221.49C448.184 221.865 448.156 222.26 448.156 222.677V223.073C448.156 223.49 448.212 223.868 448.323 224.208C448.441 224.549 448.608 224.84 448.823 225.083C449.045 225.319 449.309 225.503 449.615 225.635C449.927 225.767 450.281 225.833 450.677 225.833C451.156 225.833 451.628 225.743 452.094 225.562C452.559 225.382 452.958 225.083 453.292 224.667L454.885 226.562C454.656 226.889 454.33 227.205 453.906 227.51C453.49 227.816 452.99 228.066 452.406 228.26C451.823 228.448 451.17 228.542 450.448 228.542ZM462.813 223.573V213.167H466.458V223.573C466.458 224.587 466.226 225.465 465.76 226.208C465.302 226.951 464.677 227.528 463.885 227.937C463.101 228.34 462.219 228.542 461.24 228.542C460.226 228.542 459.323 228.372 458.531 228.031C457.747 227.691 457.128 227.167 456.677 226.458C456.233 225.75 456.01 224.847 456.01 223.75H459.677C459.677 224.264 459.736 224.667 459.854 224.958C459.972 225.243 460.146 225.444 460.375 225.562C460.611 225.674 460.899 225.729 461.24 225.729C461.573 225.729 461.854 225.646 462.083 225.479C462.319 225.306 462.5 225.059 462.625 224.74C462.75 224.413 462.813 224.024 462.813 223.573ZM476.594 224.302C476.594 224.066 476.559 223.854 476.49 223.667C476.42 223.472 476.292 223.292 476.104 223.125C475.917 222.958 475.646 222.792 475.292 222.625C474.944 222.451 474.486 222.271 473.917 222.083C473.25 221.861 472.608 221.611 471.99 221.333C471.372 221.049 470.819 220.719 470.333 220.344C469.847 219.962 469.462 219.517 469.177 219.01C468.892 218.497 468.75 217.899 468.75 217.219C468.75 216.566 468.896 215.979 469.188 215.458C469.479 214.931 469.885 214.483 470.406 214.115C470.934 213.74 471.552 213.455 472.26 213.26C472.969 213.059 473.743 212.958 474.583 212.958C475.694 212.958 476.674 213.153 477.521 213.542C478.375 213.924 479.042 214.469 479.521 215.177C480.007 215.878 480.25 216.708 480.25 217.667H476.615C476.615 217.285 476.535 216.948 476.375 216.656C476.222 216.365 475.99 216.135 475.677 215.969C475.365 215.802 474.972 215.719 474.5 215.719C474.042 215.719 473.656 215.788 473.344 215.927C473.031 216.066 472.795 216.253 472.635 216.49C472.476 216.719 472.396 216.972 472.396 217.25C472.396 217.479 472.458 217.687 472.583 217.875C472.715 218.056 472.899 218.226 473.135 218.385C473.378 218.545 473.67 218.698 474.01 218.844C474.358 218.99 474.747 219.132 475.177 219.271C475.983 219.528 476.698 219.816 477.323 220.135C477.955 220.448 478.486 220.806 478.917 221.208C479.354 221.604 479.684 222.056 479.906 222.562C480.135 223.069 480.25 223.642 480.25 224.281C480.25 224.962 480.118 225.566 479.854 226.094C479.59 226.622 479.212 227.069 478.719 227.437C478.226 227.799 477.635 228.073 476.948 228.26C476.26 228.448 475.493 228.542 474.646 228.542C473.868 228.542 473.101 228.444 472.344 228.25C471.594 228.049 470.913 227.743 470.302 227.333C469.691 226.917 469.201 226.385 468.833 225.74C468.472 225.087 468.292 224.312 468.292 223.417H471.958C471.958 223.861 472.017 224.236 472.135 224.542C472.253 224.847 472.427 225.094 472.656 225.281C472.885 225.462 473.167 225.594 473.5 225.677C473.833 225.753 474.215 225.792 474.646 225.792C475.111 225.792 475.486 225.726 475.771 225.594C476.056 225.455 476.264 225.274 476.396 225.052C476.528 224.823 476.594 224.573 476.594 224.302Z" fill="white"/>
<rect x="571" y="196.333" width="208" height="49.3333" rx="4.66667" fill="#888888" stroke="#888888" stroke-width="4"/>
<path d="M614.833 213.167H620.802C621.969 213.167 622.983 213.34 623.844 213.687C624.705 214.035 625.368 214.549 625.833 215.229C626.306 215.91 626.542 216.75 626.542 217.75C626.542 218.618 626.406 219.344 626.135 219.927C625.865 220.51 625.486 220.993 625 221.375C624.521 221.75 623.962 222.059 623.323 222.302L622.125 222.979H617.115L617.094 220.156H620.802C621.267 220.156 621.653 220.073 621.958 219.906C622.264 219.74 622.493 219.503 622.646 219.198C622.806 218.885 622.885 218.514 622.885 218.083C622.885 217.646 622.806 217.271 622.646 216.958C622.486 216.646 622.25 216.406 621.937 216.24C621.632 216.073 621.253 215.99 620.802 215.99H618.49V228.333H614.833V213.167ZM623.135 228.333L619.781 221.625L623.656 221.604L627.052 228.177V228.333H623.135ZM634.042 228.542C633.125 228.542 632.306 228.399 631.583 228.115C630.861 227.823 630.25 227.424 629.75 226.917C629.257 226.41 628.878 225.826 628.615 225.167C628.358 224.507 628.229 223.809 628.229 223.073V222.677C628.229 221.851 628.344 221.087 628.573 220.385C628.802 219.677 629.142 219.059 629.594 218.531C630.045 218.003 630.611 217.594 631.292 217.302C631.972 217.003 632.764 216.854 633.667 216.854C634.465 216.854 635.181 216.983 635.813 217.24C636.444 217.497 636.979 217.865 637.417 218.344C637.861 218.823 638.198 219.403 638.427 220.083C638.663 220.764 638.781 221.528 638.781 222.375V223.802H629.573V221.604H635.354V221.333C635.361 220.958 635.295 220.639 635.156 220.375C635.024 220.111 634.83 219.91 634.573 219.771C634.316 219.632 634.003 219.562 633.635 219.562C633.253 219.562 632.938 219.646 632.688 219.812C632.444 219.979 632.253 220.208 632.115 220.5C631.983 220.785 631.889 221.115 631.833 221.49C631.778 221.865 631.75 222.26 631.75 222.677V223.073C631.75 223.49 631.806 223.868 631.917 224.208C632.035 224.549 632.201 224.84 632.417 225.083C632.639 225.319 632.903 225.503 633.208 225.635C633.521 225.767 633.875 225.833 634.271 225.833C634.75 225.833 635.222 225.743 635.688 225.562C636.153 225.382 636.552 225.083 636.885 224.667L638.479 226.562C638.25 226.889 637.924 227.205 637.5 227.51C637.083 227.816 636.583 228.066 636 228.26C635.417 228.448 634.764 228.542 634.042 228.542ZM646.063 225.5V220.854C646.063 220.535 646.017 220.26 645.927 220.031C645.837 219.802 645.694 219.625 645.5 219.5C645.306 219.368 645.045 219.302 644.719 219.302C644.455 219.302 644.229 219.347 644.042 219.437C643.854 219.528 643.712 219.663 643.615 219.844C643.517 220.024 643.469 220.253 643.469 220.531H639.958C639.958 220.01 640.073 219.528 640.302 219.083C640.538 218.632 640.872 218.24 641.302 217.906C641.74 217.573 642.26 217.316 642.865 217.135C643.476 216.948 644.156 216.854 644.906 216.854C645.802 216.854 646.601 217.003 647.302 217.302C648.01 217.601 648.569 218.049 648.979 218.646C649.389 219.236 649.594 219.979 649.594 220.875V225.49C649.594 226.226 649.635 226.785 649.719 227.167C649.802 227.542 649.92 227.872 650.073 228.156V228.333H646.552C646.385 227.986 646.26 227.562 646.177 227.062C646.101 226.556 646.063 226.035 646.063 225.5ZM646.49 221.448L646.51 223.323H644.958C644.632 223.323 644.354 223.368 644.125 223.458C643.903 223.549 643.722 223.674 643.583 223.833C643.451 223.986 643.354 224.16 643.292 224.354C643.236 224.549 643.208 224.753 643.208 224.969C643.208 225.177 643.257 225.365 643.354 225.531C643.458 225.691 643.597 225.816 643.771 225.906C643.944 225.997 644.139 226.042 644.354 226.042C644.743 226.042 645.073 225.969 645.344 225.823C645.622 225.67 645.833 225.486 645.979 225.271C646.125 225.056 646.198 224.854 646.198 224.667L646.969 226.104C646.83 226.382 646.67 226.663 646.49 226.948C646.316 227.233 646.097 227.497 645.833 227.74C645.576 227.976 645.26 228.17 644.885 228.323C644.51 228.469 644.056 228.542 643.521 228.542C642.826 228.542 642.188 228.399 641.604 228.115C641.028 227.83 640.566 227.434 640.219 226.927C639.872 226.413 639.698 225.823 639.698 225.156C639.698 224.573 639.802 224.052 640.01 223.594C640.226 223.135 640.549 222.747 640.979 222.427C641.41 222.108 641.958 221.865 642.625 221.698C643.292 221.531 644.076 221.448 644.979 221.448H646.49ZM656.302 225.833C656.628 225.833 656.906 225.774 657.135 225.656C657.372 225.531 657.549 225.358 657.667 225.135C657.792 224.906 657.851 224.632 657.844 224.312H661.146C661.153 225.16 660.944 225.903 660.521 226.542C660.104 227.174 659.535 227.667 658.812 228.021C658.097 228.368 657.288 228.542 656.385 228.542C655.503 228.542 654.733 228.399 654.073 228.115C653.413 227.823 652.861 227.42 652.417 226.906C651.979 226.385 651.649 225.778 651.427 225.083C651.212 224.389 651.104 223.635 651.104 222.823V222.583C651.104 221.771 651.212 221.017 651.427 220.323C651.649 219.622 651.979 219.014 652.417 218.5C652.861 217.979 653.41 217.576 654.062 217.292C654.722 217 655.49 216.854 656.365 216.854C657.302 216.854 658.128 217.031 658.844 217.385C659.566 217.74 660.132 218.253 660.542 218.927C660.951 219.601 661.153 220.417 661.146 221.375H657.844C657.851 221.035 657.799 220.729 657.687 220.458C657.576 220.187 657.403 219.972 657.167 219.812C656.937 219.646 656.642 219.562 656.281 219.562C655.92 219.562 655.628 219.642 655.406 219.802C655.184 219.962 655.014 220.184 654.896 220.469C654.785 220.747 654.708 221.066 654.667 221.427C654.632 221.788 654.615 222.174 654.615 222.583V222.823C654.615 223.24 654.632 223.632 654.667 224C654.708 224.361 654.788 224.681 654.906 224.958C655.024 225.229 655.194 225.444 655.417 225.604C655.639 225.757 655.934 225.833 656.302 225.833ZM668.583 217.062V219.5H661.792V217.062H668.583ZM663.219 214.26H666.729V224.656C666.729 224.955 666.764 225.187 666.833 225.354C666.903 225.514 667.021 225.628 667.188 225.698C667.361 225.76 667.59 225.792 667.875 225.792C668.076 225.792 668.243 225.788 668.375 225.781C668.507 225.767 668.632 225.75 668.75 225.729V228.24C668.451 228.337 668.139 228.41 667.813 228.458C667.486 228.514 667.139 228.542 666.771 228.542C666.021 228.542 665.378 228.424 664.844 228.187C664.316 227.951 663.913 227.58 663.635 227.073C663.358 226.566 663.219 225.906 663.219 225.094V214.26ZM688.125 213.167V228.333H684.479L679.115 218.896V228.333H675.458V213.167H679.115L684.479 222.604V213.167H688.125ZM696.125 225.5V220.854C696.125 220.535 696.08 220.26 695.99 220.031C695.899 219.802 695.757 219.625 695.563 219.5C695.368 219.368 695.108 219.302 694.781 219.302C694.517 219.302 694.292 219.347 694.104 219.437C693.917 219.528 693.774 219.663 693.677 219.844C693.58 220.024 693.531 220.253 693.531 220.531H690.021C690.021 220.01 690.135 219.528 690.365 219.083C690.601 218.632 690.934 218.24 691.365 217.906C691.802 217.573 692.323 217.316 692.927 217.135C693.538 216.948 694.219 216.854 694.969 216.854C695.865 216.854 696.663 217.003 697.365 217.302C698.073 217.601 698.632 218.049 699.042 218.646C699.451 219.236 699.656 219.979 699.656 220.875V225.49C699.656 226.226 699.698 226.785 699.781 227.167C699.865 227.542 699.983 227.872 700.135 228.156V228.333H696.615C696.448 227.986 696.323 227.562 696.24 227.062C696.163 226.556 696.125 226.035 696.125 225.5ZM696.552 221.448L696.573 223.323H695.021C694.694 223.323 694.417 223.368 694.188 223.458C693.965 223.549 693.785 223.674 693.646 223.833C693.514 223.986 693.417 224.16 693.354 224.354C693.299 224.549 693.271 224.753 693.271 224.969C693.271 225.177 693.319 225.365 693.417 225.531C693.521 225.691 693.66 225.816 693.833 225.906C694.007 225.997 694.201 226.042 694.417 226.042C694.806 226.042 695.135 225.969 695.406 225.823C695.684 225.67 695.896 225.486 696.042 225.271C696.188 225.056 696.26 224.854 696.26 224.667L697.031 226.104C696.892 226.382 696.733 226.663 696.552 226.948C696.378 227.233 696.16 227.497 695.896 227.74C695.639 227.976 695.323 228.17 694.948 228.323C694.573 228.469 694.118 228.542 693.583 228.542C692.889 228.542 692.25 228.399 691.667 228.115C691.09 227.83 690.628 227.434 690.281 226.927C689.934 226.413 689.76 225.823 689.76 225.156C689.76 224.573 689.865 224.052 690.073 223.594C690.288 223.135 690.611 222.747 691.042 222.427C691.472 222.108 692.021 221.865 692.688 221.698C693.354 221.531 694.139 221.448 695.042 221.448H696.552ZM707.542 217.062V219.5H700.75V217.062H707.542ZM702.177 214.26H705.687V224.656C705.687 224.955 705.722 225.187 705.792 225.354C705.861 225.514 705.979 225.628 706.146 225.698C706.319 225.76 706.549 225.792 706.833 225.792C707.035 225.792 707.201 225.788 707.333 225.781C707.465 225.767 707.59 225.75 707.708 225.729V228.24C707.41 228.337 707.097 228.41 706.771 228.458C706.444 228.514 706.097 228.542 705.729 228.542C704.979 228.542 704.337 228.424 703.802 228.187C703.274 227.951 702.872 227.58 702.594 227.073C702.316 226.566 702.177 225.906 702.177 225.094V214.26ZM712.646 217.062V228.333H709.125V217.062H712.646ZM708.917 214.156C708.917 213.656 709.097 213.247 709.458 212.927C709.819 212.608 710.288 212.448 710.865 212.448C711.441 212.448 711.91 212.608 712.271 212.927C712.632 213.247 712.813 213.656 712.813 214.156C712.813 214.656 712.632 215.066 712.271 215.385C711.91 215.705 711.441 215.865 710.865 215.865C710.288 215.865 709.819 215.705 709.458 215.385C709.097 215.066 708.917 214.656 708.917 214.156ZM718.875 225.927L721.094 217.062H724.792L721.104 228.333H718.917L718.875 225.927ZM717.563 217.062L719.75 225.927L719.729 228.333H717.531L713.854 217.062H717.563ZM731.146 228.542C730.229 228.542 729.41 228.399 728.688 228.115C727.965 227.823 727.354 227.424 726.854 226.917C726.361 226.41 725.983 225.826 725.719 225.167C725.462 224.507 725.333 223.809 725.333 223.073V222.677C725.333 221.851 725.448 221.087 725.677 220.385C725.906 219.677 726.247 219.059 726.698 218.531C727.149 218.003 727.715 217.594 728.396 217.302C729.076 217.003 729.868 216.854 730.771 216.854C731.569 216.854 732.285 216.983 732.917 217.24C733.549 217.497 734.083 217.865 734.521 218.344C734.965 218.823 735.302 219.403 735.531 220.083C735.767 220.764 735.885 221.528 735.885 222.375V223.802H726.677V221.604H732.458V221.333C732.465 220.958 732.399 220.639 732.26 220.375C732.128 220.111 731.934 219.91 731.677 219.771C731.42 219.632 731.108 219.562 730.74 219.562C730.358 219.562 730.042 219.646 729.792 219.812C729.549 219.979 729.358 220.208 729.219 220.5C729.087 220.785 728.993 221.115 728.938 221.49C728.882 221.865 728.854 222.26 728.854 222.677V223.073C728.854 223.49 728.91 223.868 729.021 224.208C729.139 224.549 729.306 224.84 729.521 225.083C729.743 225.319 730.007 225.503 730.313 225.635C730.625 225.767 730.979 225.833 731.375 225.833C731.854 225.833 732.326 225.743 732.792 225.562C733.257 225.382 733.656 225.083 733.99 224.667L735.583 226.562C735.354 226.889 735.028 227.205 734.604 227.51C734.188 227.816 733.688 228.066 733.104 228.26C732.521 228.448 731.868 228.542 731.146 228.542Z" fill="white"/>
</svg>
